<?xml version="1.0" standalone="no"?>
<!DOCTYPE svg PUBLIC "-//W3C//DTD SVG 20010904//EN"
 "http://www.w3.org/TR/2001/REC-SVG-20010904/DTD/svg10.dtd">
<svg version="1.0" xmlns="http://www.w3.org/2000/svg"
 width="632.000000pt" height="640.000000pt" viewBox="0 0 632.000000 640.000000"
 preserveAspectRatio="xMidYMid meet">

<g transform="translate(0.000000,640.000000) scale(0.100000,-0.100000)"
fill="#000000" stroke="none">
<path d="M1713 6364 c-5 -13 -7 -13 -14 -2 -6 9 -9 9 -9 1 0 -20 20 -26 37
-11 15 11 16 11 10 -4 -7 -20 8 -25 19 -6 5 7 11 5 21 -7 9 -13 16 -16 23 -9
7 7 -5 17 -35 32 -40 19 -46 20 -52 6z"/>
<path d="M1656 6334 c-11 -7 -18 -16 -15 -18 2 -2 13 2 23 10 11 7 18 16 15
18 -2 2 -13 -2 -23 -10z"/>
<path d="M1761 6333 c-1 -6 -9 -13 -18 -15 -11 -2 -14 -6 -8 -10 16 -10 38 7
32 23 -3 9 -6 9 -6 2z"/>
<path d="M1697 6316 c-19 -19 -23 -31 -7 -21 6 3 10 2 10 -4 0 -5 -4 -13 -10
-16 -5 -3 -10 -16 -10 -28 0 -17 -2 -19 -10 -7 -7 11 -11 8 -21 -15 -7 -17
-11 -34 -10 -39 1 -4 -3 -14 -9 -21 -6 -7 -10 -24 -9 -37 5 -59 -1 -64 -27
-23 l-25 40 2 -30 c2 -50 0 -57 -16 -51 -8 3 -15 1 -15 -4 0 -6 -8 -10 -18
-10 -22 0 -53 -35 -46 -54 3 -7 -2 -16 -10 -19 -22 -9 -20 -27 3 -27 11 0 29
-12 40 -26 21 -27 17 -45 -16 -82 -17 -18 -16 -31 2 -38 8 -4 15 -15 15 -25 0
-16 5 -18 26 -13 18 5 25 3 20 -4 -7 -12 29 -26 44 -17 5 3 12 -6 16 -20 3
-13 10 -22 15 -19 13 8 92 7 130 -1 30 -7 31 -6 26 17 -4 14 -1 33 7 44 35 51
30 62 -61 151 -47 45 -82 83 -78 83 4 0 1 8 -6 17 -12 15 -12 16 1 8 8 -4 24
-16 36 -27 25 -23 44 -17 65 21 18 31 16 114 -4 139 -6 8 -5 12 5 12 7 0 14 8
14 18 0 9 4 28 8 42 5 18 5 21 -3 10 -5 -8 -14 -11 -18 -6 -4 4 0 13 10 20 17
13 25 32 8 21 -5 -3 -16 2 -24 10 -21 20 -27 19 -27 -6 0 -11 -5 -17 -10 -14
-7 4 -6 13 1 26 15 29 6 45 -14 25z m63 -106 c0 -5 -2 -10 -4 -10 -3 0 -8 5
-11 10 -3 6 -1 10 4 10 6 0 11 -4 11 -10z m-225 -240 c3 -5 1 -10 -4 -10 -6 0
-11 5 -11 10 0 6 2 10 4 10 3 0 8 -4 11 -10z m65 -41 c0 -6 -4 -7 -10 -4 -5 3
-10 11 -10 16 0 6 5 7 10 4 6 -3 10 -11 10 -16z m-45 -9 c-11 -5 -17 -9 -12
-11 22 -5 28 -7 43 -8 8 0 13 -5 9 -11 -3 -5 -12 -7 -20 -3 -9 3 -15 -1 -15
-8 0 -7 -7 -3 -16 9 -17 25 -11 42 14 41 14 0 13 -2 -3 -9z"/>
<path d="M1778 6303 c-10 -2 -18 -8 -18 -13 0 -12 33 -5 38 8 2 7 2 11 0 11
-1 -1 -11 -3 -20 -6z"/>
<path d="M1118 6273 c7 -3 16 -2 19 1 4 3 -2 6 -13 5 -11 0 -14 -3 -6 -6z"/>
<path d="M500 6185 c7 -8 13 -41 15 -72 3 -97 5 -103 19 -103 8 0 17 14 21 30
5 25 12 30 35 30 34 0 48 26 18 34 -14 3 -26 -1 -34 -12 -12 -15 -13 -9 -14
39 0 50 -3 57 -22 63 -41 11 -52 8 -38 -9z"/>
<path d="M2990 6106 c0 -40 -5 -68 -13 -75 -8 -6 -76 -12 -173 -14 l-159 -3
161 -2 c108 -1 164 -6 172 -14 7 -7 12 -36 12 -66 l0 -55 50 6 c28 3 55 9 60
12 6 3 10 25 10 49 0 23 5 47 12 54 13 13 212 17 242 6 21 -8 23 -122 2 -130
-7 -3 -39 1 -70 10 -53 13 -58 13 -63 -2 -44 -122 -93 -218 -155 -301 l-41
-54 33 19 c18 11 63 47 100 82 37 34 74 62 82 62 15 0 108 -138 108 -160 0
-12 -70 -79 -162 -155 l-53 -43 -123 -1 c-68 0 -128 -3 -133 -6 -20 -13 -6 35
47 159 82 191 87 202 80 195 -4 -3 -56 -87 -117 -185 -61 -98 -112 -180 -113
-181 -1 -2 -42 -14 -91 -28 -209 -61 -307 -155 -242 -231 23 -27 30 -29 89
-28 40 1 90 11 137 28 41 14 75 26 77 26 1 0 -1 -20 -4 -45 -8 -78 45 -108
114 -66 43 26 50 88 20 162 -5 11 2 19 21 28 15 7 71 38 123 69 52 32 98 59
103 60 4 2 7 -73 7 -167 l0 -171 35 0 c45 0 85 19 85 40 0 35 24 41 156 38
l129 -3 3 -32 c3 -30 6 -33 35 -33 18 1 45 6 61 13 29 13 29 13 27 90 -1 42 1
77 5 77 16 0 107 -76 170 -142 91 -96 109 -133 109 -224 0 -74 13 -104 45
-104 10 0 23 7 30 15 42 51 -131 305 -290 426 -74 57 -78 66 -64 137 7 34 43
55 78 46 19 -4 25 0 35 24 7 16 26 42 42 58 l29 28 -107 27 c-133 33 -219 65
-227 84 -3 10 23 43 73 93 43 43 86 91 96 105 10 15 27 27 38 27 18 0 15 7
-23 45 -60 62 -73 64 -120 21 -40 -36 -41 -36 -129 -36 -49 0 -96 3 -105 6
-31 12 -9 84 26 84 8 0 19 5 24 10 6 6 30 16 55 23 42 12 44 15 47 52 6 65 6
65 191 65 l166 0 -55 50 c-30 27 -60 49 -66 50 -7 0 -27 -20 -45 -45 l-34 -45
-75 3 -75 2 -3 55 c-2 41 1 57 13 66 13 10 11 12 -16 18 -17 3 -53 6 -80 6
l-48 0 -3 -72 -3 -73 -119 -3 c-78 -2 -123 1 -132 9 -19 15 -18 93 1 112 12
13 10 15 -17 21 -17 3 -50 6 -74 6 l-44 0 0 -64z m553 -360 c12 -29 -101 -166
-136 -166 -22 0 -137 107 -137 127 0 8 5 23 10 34 10 17 22 19 134 19 99 0
125 -3 129 -14z m-48 -322 c76 -53 85 -67 60 -94 -16 -18 -31 -20 -144 -20
-128 0 -176 11 -176 39 0 10 170 116 192 121 1 0 32 -21 68 -46z m-385 -112
c0 -4 -53 -38 -117 -75 -80 -45 -121 -63 -128 -56 -11 11 -12 105 -1 116 13
14 246 28 246 15z m428 -24 c7 -7 12 -22 12 -34 l0 -23 -82 30 c-46 17 -85 32
-87 35 -2 2 29 4 70 4 45 0 80 -5 87 -12z m-126 -24 c140 -44 138 -42 138
-127 0 -44 -5 -78 -12 -85 -8 -8 -51 -12 -129 -12 -150 0 -149 -1 -149 125 0
51 3 100 6 109 9 23 50 20 146 -10z m-662 6 c-8 -5 -23 -10 -33 -10 -15 0 -14
-4 8 -22 19 -17 27 -36 32 -74 l5 -51 -71 -26 c-135 -50 -231 -44 -231 15 0
26 63 88 116 113 89 43 219 84 174 55z"/>
<path d="M330 6129 c6 -11 10 -37 8 -57 l-3 -37 54 3 c30 2 63 7 75 12 13 5 1
6 -31 3 l-53 -6 0 52 c0 50 0 51 -30 51 -28 0 -30 -2 -20 -21z"/>
<path d="M5712 6120 c0 -14 2 -19 5 -12 2 6 2 18 0 25 -3 6 -5 1 -5 -13z"/>
<path d="M5888 6133 c12 -2 30 -2 40 0 9 3 -1 5 -23 4 -22 0 -30 -2 -17 -4z"/>
<path d="M5760 6110 c-13 -8 -12 -10 3 -10 9 0 17 5 17 10 0 12 -1 12 -20 0z"/>
<path d="M5890 6086 c4 -4 16 -4 26 2 16 9 14 10 -8 9 -15 -1 -23 -6 -18 -11z"/>
<path d="M5733 6073 c9 -2 23 -2 30 0 6 3 -1 5 -18 5 -16 0 -22 -2 -12 -5z"/>
<path d="M5750 6040 c-23 -7 -23 -8 -3 -9 12 -1 25 4 28 9 3 6 5 10 3 9 -2 -1
-14 -5 -28 -9z"/>
<path d="M5895 6035 c-25 -12 -26 -14 -5 -9 14 4 29 10 35 15 12 12 5 11 -30
-6z"/>
<path d="M5712 5990 c0 -14 2 -19 5 -12 2 6 2 18 0 25 -3 6 -5 1 -5 -13z"/>
<path d="M360 5991 c0 -16 49 -26 63 -12 8 8 7 11 -3 11 -8 0 -25 3 -37 6 -14
4 -23 2 -23 -5z"/>
<path d="M498 5993 c7 -3 12 -22 12 -46 0 -84 31 -87 44 -5 8 50 2 58 -37 57
-18 0 -26 -3 -19 -6z"/>
<path d="M5900 5970 c-14 -11 -21 -20 -17 -20 5 0 20 9 34 20 14 11 22 20 17
20 -5 0 -20 -9 -34 -20z"/>
<path d="M1480 5930 c0 -5 5 -10 11 -10 5 0 7 5 4 10 -3 6 -8 10 -11 10 -2 0
-4 -4 -4 -10z"/>
<path d="M5728 5913 c7 -3 16 -2 19 1 4 3 -2 6 -13 5 -11 0 -14 -3 -6 -6z"/>
<path d="M5888 5913 c12 -2 30 -2 40 0 9 3 -1 5 -23 4 -22 0 -30 -2 -17 -4z"/>
<path d="M5884 5884 c-18 -14 -18 -15 4 -4 12 6 22 13 22 15 0 8 -5 6 -26 -11z"/>
<path d="M2765 5863 c10 -16 29 -44 42 -63 12 -19 23 -40 23 -46 0 -25 42 -64
69 -64 70 0 81 90 19 143 -32 27 -112 57 -151 57 -19 0 -19 -1 -2 -27z"/>
<path d="M5883 5843 c9 -2 25 -2 35 0 9 3 1 5 -18 5 -19 0 -27 -2 -17 -5z"/>
<path d="M5727 5818 c2 -5 10 -8 18 -8 8 0 16 3 18 8 3 4 -5 7 -18 7 -13 0
-21 -3 -18 -7z"/>
<path d="M505 5797 c11 -18 15 -52 14 -143 0 -115 5 -154 21 -154 9 0 20 51
20 96 0 31 3 34 30 34 21 0 30 5 30 16 0 13 -7 15 -31 10 l-30 -6 2 77 c2 81
-3 90 -54 92 -16 1 -16 -1 -2 -22z"/>
<path d="M5887 5798 c2 -5 10 -8 18 -8 8 0 16 3 18 8 3 4 -5 7 -18 7 -13 0
-21 -3 -18 -7z"/>
<path d="M362 5789 c6 -17 67 -24 81 -10 8 8 4 11 -13 11 -14 0 -36 3 -49 7
-18 4 -23 2 -19 -8z"/>
<path d="M5877 5773 c-3 -5 8 -8 23 -8 15 0 26 3 23 8 -2 4 -13 7 -23 7 -10 0
-21 -3 -23 -7z"/>
<path d="M5733 5763 c-13 -2 -23 -8 -23 -13 0 -5 14 -4 30 1 27 10 42 21 23
18 -5 -1 -18 -4 -30 -6z"/>
<path d="M380 5751 c-64 -5 -72 -8 -54 -18 13 -7 25 -8 35 -2 7 5 42 9 77 9
40 0 61 4 57 10 -3 6 -14 9 -23 8 -9 -1 -51 -4 -92 -7z"/>
<path d="M1830 5752 c0 -5 10 -17 22 -28 l21 -19 -18 28 c-18 28 -25 33 -25
19z"/>
<path d="M5905 5730 l-30 -8 27 -1 c15 0 30 4 33 9 3 6 5 9 3 9 -2 -1 -16 -5
-33 -9z"/>
<path d="M356 5704 c-9 -8 -16 -22 -16 -29 0 -15 27 -45 41 -45 5 0 9 -12 9
-26 0 -26 -2 -26 -45 -22 -48 6 -59 -3 -22 -19 15 -7 29 -6 47 4 14 7 41 13
60 14 19 1 27 3 18 6 -26 7 -22 38 7 51 31 14 34 56 6 72 -33 17 -40 12 -28
-19 8 -23 8 -33 -2 -45 -18 -21 -28 -20 -42 5 -8 16 -8 28 0 45 8 19 8 24 -4
24 -7 0 -21 -7 -29 -16z"/>
<path d="M5745 5694 l-30 -26 33 22 c17 12 32 23 32 26 0 7 -4 5 -35 -22z"/>
<path d="M2190 5691 c0 -6 5 -13 10 -16 6 -3 10 1 10 9 0 9 -4 16 -10 16 -5 0
-10 -4 -10 -9z"/>
<path d="M5920 5690 c0 -5 5 -10 10 -10 6 0 10 5 10 10 0 6 -4 10 -10 10 -5 0
-10 -4 -10 -10z"/>
<path d="M5885 5668 l-20 -21 23 12 c12 6 22 16 22 21 0 13 -2 12 -25 -12z"/>
<path d="M1890 5664 c0 -8 5 -12 10 -9 6 3 10 10 10 16 0 5 -4 9 -10 9 -5 0
-10 -7 -10 -16z"/>
<path d="M2669 5636 c18 -26 41 -67 52 -91 26 -58 60 -82 95 -67 70 32 46 119
-46 164 -30 15 -73 30 -94 34 l-39 7 32 -47z"/>
<path d="M5728 5633 c12 -2 30 -2 40 0 9 3 -1 5 -23 4 -22 0 -30 -2 -17 -4z"/>
<path d="M1598 5596 c-15 -12 -27 -25 -25 -27 1 -2 -2 0 -8 6 -11 12 -55 17
-55 7 0 -4 -17 -7 -38 -6 -26 0 -45 -7 -62 -23 -13 -13 -19 -23 -12 -23 17 0
15 -25 -3 -40 -15 -13 -11 -35 6 -25 5 4 9 2 9 -2 0 -5 -31 -16 -68 -25 -38
-9 -95 -28 -126 -42 -51 -24 -57 -29 -51 -49 3 -12 7 -28 7 -36 1 -17 34 -51
48 -51 6 0 10 -6 10 -14 0 -8 5 -16 11 -18 5 -2 7 -11 4 -21 -4 -9 -11 -15
-15 -12 -5 3 -11 1 -15 -5 -6 -10 26 -45 81 -88 44 -34 56 -41 68 -36 7 3 21
-5 33 -16 12 -11 29 -20 38 -20 8 0 15 -7 15 -15 0 -8 -4 -15 -10 -15 -5 0
-10 -11 -10 -25 0 -21 5 -25 29 -25 35 0 44 -18 22 -43 -14 -17 -11 -17 37 2
43 17 52 18 52 6 0 -8 5 -15 10 -15 6 0 10 -5 10 -11 0 -7 -10 -9 -25 -7 -28
6 -29 3 -14 -40 5 -16 20 -32 31 -35 13 -4 19 -11 15 -20 -8 -21 20 -57 39
-50 13 5 15 1 9 -16 -4 -15 1 -30 18 -50 24 -29 24 -29 41 -10 13 16 15 33 11
85 l-5 65 43 -25 c31 -19 44 -34 51 -61 8 -29 21 -43 63 -68 29 -17 53 -38 53
-47 0 -13 1 -13 10 0 5 8 12 11 16 7 4 -4 12 3 18 15 8 15 24 25 48 29 20 3
44 11 52 18 8 7 20 10 26 6 5 -3 10 1 10 9 0 9 -4 16 -10 16 -5 0 -7 7 -4 15
4 9 -3 16 -21 21 -18 4 -23 10 -16 17 6 6 7 16 1 28 -7 11 -7 20 0 24 16 10
12 23 -7 27 -10 2 -22 -2 -28 -9 -8 -10 -13 -10 -27 0 -14 11 -15 19 -5 57 10
34 9 44 0 47 -15 5 -18 63 -3 63 6 0 10 -7 10 -15 0 -8 4 -23 9 -33 5 -9 12
-26 16 -37 6 -19 7 -19 24 4 15 19 17 31 10 55 -11 39 -11 55 0 37 8 -12 12
-12 26 2 20 20 27 21 43 5 9 -9 12 -9 12 0 0 7 5 12 12 12 6 0 20 7 30 17 17
15 17 18 2 34 -14 15 -14 21 -4 34 10 12 10 15 0 15 -7 0 -10 6 -7 14 3 7 0
19 -6 26 -9 10 -8 12 5 7 13 -5 19 0 24 17 3 13 21 32 40 42 21 12 30 22 24
28 -6 6 -17 3 -31 -10 -13 -10 -19 -13 -15 -6 10 16 -11 42 -29 36 -7 -3 -16
-1 -20 5 -3 6 -2 11 3 11 6 0 8 9 5 21 -4 15 0 22 16 26 22 5 29 37 11 48 -5
3 -10 11 -10 18 0 6 6 3 13 -8 8 -10 19 -15 25 -11 8 5 10 2 6 -8 -4 -11 0
-16 15 -16 12 0 21 4 21 8 0 12 -23 32 -37 32 -6 0 -28 11 -48 24 -20 14 -41
26 -48 29 -9 3 -9 8 -1 18 19 26 11 44 -19 41 -25 -3 -28 -1 -22 17 5 16 3 19
-8 15 -8 -3 -17 2 -21 11 -4 12 -10 14 -25 5 -11 -6 -24 -10 -28 -9 -27 5 -45
-4 -55 -26 -8 -19 -17 -24 -32 -19 -17 4 -18 3 -6 -6 11 -9 12 -13 3 -17 -14
-5 -18 -45 -6 -56 3 -4 12 -2 20 4 9 8 13 8 13 1 0 -6 -5 -14 -10 -17 -6 -4
-8 -15 -5 -26 5 -15 1 -19 -18 -19 -33 0 -59 -31 -55 -66 3 -26 0 -29 -22 -26
-14 2 -30 8 -37 13 -7 7 -14 6 -18 -1 -10 -17 -35 -11 -43 10 -5 14 -11 17
-22 10 -12 -8 -12 -11 3 -28 9 -10 14 -22 10 -25 -12 -12 -35 32 -28 54 5 15
4 19 -4 15 -17 -11 -13 10 4 24 11 9 12 16 5 25 -8 9 -7 14 2 18 18 6 -2 39
-27 43 -10 1 -21 7 -24 12 -3 5 -16 12 -28 16 -18 6 -22 4 -17 -8 4 -9 1 -16
-6 -16 -16 0 -4 49 18 73 19 21 24 45 11 53 -6 3 -7 14 -4 25 8 24 6 24 -27
-5z m-18 -56 c0 -5 -5 -10 -11 -10 -5 0 -7 5 -4 10 3 6 8 10 11 10 2 0 4 -4 4
-10z m470 -40 c0 -5 -4 -10 -10 -10 -5 0 -10 5 -10 10 0 6 5 10 10 10 6 0 10
-4 10 -10z m-560 -20 c0 -5 -4 -10 -9 -10 -6 0 -13 5 -16 10 -3 6 1 10 9 10 9
0 16 -4 16 -10z m589 -36 c2 -2 -6 -4 -18 -4 -18 0 -22 -4 -18 -20 3 -11 1
-20 -4 -20 -5 0 -9 9 -9 19 0 12 -11 23 -27 29 -23 9 -19 10 22 5 28 -3 52 -7
54 -9z m16 -94 c17 0 28 -31 16 -43 -7 -7 -12 -5 -17 6 -7 20 -34 23 -35 5 0
-7 -4 -4 -8 7 -11 25 -4 38 16 31 8 -3 21 -6 28 -6z m-165 -35 c-21 -26 -31
-16 -13 11 9 15 19 21 21 15 2 -6 -2 -18 -8 -26z m66 -11 c-3 -8 -10 -14 -15
-14 -5 0 -4 13 2 31 8 21 13 26 15 14 2 -9 1 -23 -2 -31z m154 -83 c0 -19 -15
-12 -25 12 -6 12 -16 21 -23 20 -7 -2 -12 7 -12 20 0 21 2 20 30 -10 17 -18
30 -37 30 -42z m-423 -47 c-3 -3 -12 -4 -19 -1 -8 3 -5 6 6 6 11 1 17 -2 13
-5z m173 -24 c0 -5 -4 -10 -9 -10 -6 0 -13 5 -16 10 -3 6 1 10 9 10 9 0 16 -4
16 -10z m-545 -70 c3 -6 -1 -7 -9 -4 -18 7 -21 14 -7 14 6 0 13 -4 16 -10z
m820 -9 c3 -5 2 -12 -3 -15 -5 -3 -9 1 -9 9 0 17 3 19 12 6z m-187 -289 c1
-21 0 -24 -8 -12 -7 12 -10 8 -10 -15 0 -45 -13 -60 -39 -46 -15 9 -21 21 -21
46 0 19 0 37 0 40 0 3 3 6 8 8 4 1 13 -14 20 -33 l13 -35 -5 47 c-5 46 -5 47
17 37 14 -6 23 -20 25 -37z m-298 -72 c0 -5 -4 -10 -10 -10 -5 0 -10 5 -10 10
0 6 5 10 10 10 6 0 10 -4 10 -10z"/>
<path d="M478 5593 c7 -3 16 -2 19 1 4 3 -2 6 -13 5 -11 0 -14 -3 -6 -6z"/>
<path d="M5710 5580 c0 -5 5 -10 11 -10 5 0 7 5 4 10 -3 6 -8 10 -11 10 -2 0
-4 -4 -4 -10z"/>
<path d="M5755 5580 c-19 -8 -19 -9 3 -9 12 -1 22 4 22 9 0 6 -1 10 -2 9 -2 0
-12 -4 -23 -9z"/>
<path d="M5876 5572 c-2 -4 11 -6 30 -4 19 2 34 6 34 8 0 8 -59 4 -64 -4z"/>
<path d="M5745 5510 c-10 -11 -14 -20 -9 -20 5 0 15 9 22 20 7 11 11 20 9 20
-2 0 -12 -9 -22 -20z"/>
<path d="M1780 5510 c-12 -8 -11 -10 8 -10 12 0 22 5 22 10 0 13 -11 13 -30 0z"/>
<path d="M5900 5479 c-17 -13 -18 -17 -5 -10 33 17 51 31 40 31 -5 0 -21 -10
-35 -21z"/>
<path d="M5728 5443 c12 -2 30 -2 40 0 9 3 -1 5 -23 4 -22 0 -30 -2 -17 -4z"/>
<path d="M5888 5423 c12 -2 30 -2 40 0 9 3 -1 5 -23 4 -22 0 -30 -2 -17 -4z"/>
<path d="M392 5404 c-59 -41 8 -117 88 -99 60 13 81 69 38 99 -28 20 -58 22
-40 4 7 -7 12 -29 12 -50 0 -42 -20 -59 -49 -41 -20 12 -27 69 -10 89 16 20
-9 19 -39 -2z"/>
<path d="M5903 5388 c-18 -6 -33 -14 -33 -19 0 -4 16 -2 35 4 19 6 35 14 35
19 0 4 -1 8 -2 7 -2 -1 -18 -6 -35 -11z"/>
<path d="M5728 5373 c-10 -2 -18 -8 -18 -13 0 -5 14 -4 30 1 45 16 36 25 -12
12z"/>
<path d="M2240 5340 c0 -5 9 -10 20 -10 11 0 20 5 20 10 0 6 -9 10 -20 10 -11
0 -20 -4 -20 -10z"/>
<path d="M5728 5323 c12 -2 30 -2 40 0 9 3 -1 5 -23 4 -22 0 -30 -2 -17 -4z"/>
<path d="M5888 5313 c12 -2 30 -2 40 0 9 3 -1 5 -23 4 -22 0 -30 -2 -17 -4z"/>
<path d="M560 5280 c-8 -5 -71 -10 -140 -11 -113 -1 -122 -2 -95 -14 18 -8 34
-10 40 -4 18 17 23 9 27 -51 7 -97 30 -93 43 7 6 48 9 53 31 53 23 0 24 -3 24
-57 0 -72 14 -100 29 -60 6 16 11 48 11 73 l0 44 45 0 c25 0 45 5 45 10 0 6
-4 10 -9 10 -5 0 -15 2 -23 5 -7 3 -20 0 -28 -5z"/>
<path d="M5888 5253 c12 -2 30 -2 40 0 9 3 -1 5 -23 4 -22 0 -30 -2 -17 -4z"/>
<path d="M5881 5230 c-7 -4 1 -7 18 -8 17 0 31 1 31 3 0 7 -39 12 -49 5z"/>
<path d="M5895 5170 c-10 -11 -14 -20 -9 -20 5 0 15 9 22 20 7 11 11 20 9 20
-2 0 -12 -9 -22 -20z"/>
<path d="M5888 5123 c12 -2 30 -2 40 0 9 3 -1 5 -23 4 -22 0 -30 -2 -17 -4z"/>
<path d="M5888 5073 c12 -2 30 -2 40 0 9 3 -1 5 -23 4 -22 0 -30 -2 -17 -4z"/>
<path d="M440 5047 c0 -14 -72 -86 -105 -106 -17 -11 -14 -12 20 -7 21 3 52
15 67 26 15 11 31 20 35 20 4 0 16 12 26 25 17 24 17 24 -13 40 -24 12 -30 13
-30 2z"/>
<path d="M5907 5019 c-9 -5 -22 -7 -27 -4 -6 3 -10 1 -10 -4 0 -6 6 -11 13
-11 15 1 66 29 52 29 -5 0 -18 -4 -28 -10z"/>
<path d="M480 4982 c0 -4 20 -18 45 -30 50 -24 74 -12 35 20 -22 18 -80 25
-80 10z"/>
<path d="M554 4893 c-16 -12 -13 -13 24 -13 45 0 57 15 18 22 -13 3 -32 -1
-42 -9z"/>
<path d="M314 4875 c25 -19 50 -19 66 0 11 13 6 15 -36 15 -45 -1 -48 -2 -30
-15z"/>
<path d="M423 4880 c12 -8 17 -25 17 -63 0 -101 27 -98 39 4 7 56 6 59 -15 59
-12 0 -31 3 -41 6 -17 5 -17 5 0 -6z"/>
<path d="M2021 4874 c0 -11 3 -14 6 -6 3 7 2 16 -1 19 -3 4 -6 -2 -5 -13z"/>
<path d="M5899 4778 c-12 -23 -12 -23 10 -4 23 21 26 26 11 26 -5 0 -15 -10
-21 -22z"/>
<path d="M5888 4723 c12 -2 30 -2 40 0 9 3 -1 5 -23 4 -22 0 -30 -2 -17 -4z"/>
<path d="M5895 4685 c-25 -12 -26 -14 -5 -9 28 7 60 23 45 23 -5 0 -23 -6 -40
-14z"/>
<path d="M1766 4628 c4 -7 18 -28 31 -46 14 -18 23 -36 20 -39 -7 -6 -68 36
-85 60 -15 20 -52 23 -52 4 0 -30 80 -77 148 -87 l43 -7 -19 21 c-11 12 -32
40 -47 64 -15 23 -32 42 -37 42 -5 0 -6 -6 -2 -12z"/>
<path d="M2985 4617 c-3 -7 -6 -43 -7 -82 l-3 -70 -165 -5 c-156 -5 -158 -6
-50 -8 63 -1 139 -5 168 -8 l52 -7 0 -68 c0 -57 -3 -70 -19 -78 -10 -6 -22
-22 -25 -36 -4 -14 -24 -64 -45 -110 -30 -63 -46 -87 -70 -99 -30 -16 -31 -16
-31 4 0 12 5 18 10 15 6 -3 10 0 10 8 0 13 -27 26 -52 27 -15 0 5 -95 23 -111
18 -16 17 -19 -23 -80 -22 -35 -57 -84 -77 -108 -24 -29 -29 -40 -16 -33 25
14 102 68 149 106 61 48 66 38 66 -133 l0 -149 -47 -16 c-71 -24 -80 -22 -75
18 2 18 -1 37 -7 40 -6 4 -11 12 -11 17 0 6 5 7 10 4 6 -3 10 -4 10 -1 0 12
-98 63 -155 80 -5 2 -17 6 -25 9 -58 21 -59 20 -56 -54 2 -71 5 -76 33 -60 15
8 15 14 5 47 -13 43 -9 53 13 34 18 -15 20 -71 3 -89 -11 -10 -10 -11 5 -6 20
8 25 -20 5 -28 -7 -3 1 -3 18 0 25 4 34 0 48 -22 10 -15 16 -28 14 -29 -21
-14 -226 -46 -283 -44 -31 1 -39 6 -47 30 -13 38 -31 36 -23 -2 4 -19 3 -30
-4 -30 -13 0 -25 45 -16 59 3 6 0 11 -7 11 -7 0 -19 9 -26 20 -10 16 -10 24 0
40 14 22 28 26 28 8 0 -9 3 -9 11 -1 16 16 -6 51 -39 65 -15 6 -30 11 -34 10
-5 -1 -8 3 -8 8 0 6 -4 10 -10 10 -5 0 -10 -11 -10 -25 0 -14 5 -25 10 -25 6
0 10 -4 10 -10 0 -21 -20 -9 -26 15 -8 31 -33 46 -62 38 -23 -6 -28 -18 -12
-28 6 -3 10 -15 10 -25 0 -16 -5 -18 -29 -14 -28 6 -28 5 -27 -35 0 -23 4 -41
8 -41 5 0 8 -9 8 -19 0 -11 6 -22 13 -24 28 -12 -43 -6 -96 8 -32 8 -61 15
-65 14 -13 -1 42 -20 118 -41 41 -11 79 -27 85 -34 8 -10 20 -11 50 -4 43 10
88 4 79 -11 -3 -5 2 -9 10 -9 10 0 13 -6 10 -17 -5 -14 -4 -15 4 -4 6 8 8 20
6 26 -4 9 32 14 128 19 73 3 145 9 160 12 25 6 27 4 25 -22 -1 -20 2 -28 12
-26 8 2 17 -2 22 -9 13 -21 31 28 19 51 -9 16 -8 18 5 14 9 -4 15 -1 15 7 0
11 2 11 10 -1 7 -12 12 -11 31 5 l22 20 -13 -25 c-17 -31 -30 -120 -17 -120 5
0 25 7 44 16 37 18 59 10 43 -16 -7 -11 -10 -12 -10 -2 0 9 -7 11 -22 6 -32
-9 -33 -10 -14 -38 9 -14 17 -37 18 -50 1 -14 5 -24 8 -24 19 2 30 -3 25 -12
-3 -5 1 -10 9 -10 9 0 16 -8 16 -17 0 -15 2 -16 10 -3 5 8 7 23 4 33 -4 12 0
17 15 17 24 0 25 -1 10 -34 -15 -33 -1 -52 47 -60 46 -9 62 8 65 74 l3 53 -49
23 c-63 31 -85 51 -86 83 -1 22 -3 20 -9 -9 -7 -32 -8 -33 -15 -13 -4 13 -11
21 -15 18 -10 -6 -53 81 -48 97 3 7 27 20 54 29 l49 17 3 -79 3 -79 35 0 c19
0 48 7 64 15 30 15 30 16 31 103 l0 87 118 58 c65 31 125 57 133 57 13 0 16
-20 20 -107 6 -126 10 -138 52 -160 26 -14 61 -17 216 -16 190 1 271 12 302
40 25 23 22 58 -6 77 -21 13 -26 27 -32 86 l-7 70 -23 -67 c-13 -36 -28 -71
-34 -77 -17 -17 -302 -15 -323 3 -14 11 -17 34 -17 127 0 78 4 116 13 124 6 6
44 34 82 62 39 29 108 89 155 134 47 45 94 83 105 85 16 3 8 13 -42 52 -34 26
-65 47 -70 47 -5 0 -28 -26 -50 -58 -69 -98 -143 -173 -167 -170 -20 3 -21 10
-24 128 -2 109 0 126 15 137 9 7 17 25 18 40 0 22 6 29 33 37 30 8 32 12 32
55 0 75 -2 74 185 79 l167 5 -58 53 c-33 29 -61 53 -64 54 -3 0 -23 -22 -43
-50 l-37 -50 -69 0 c-78 0 -81 3 -81 75 0 27 6 50 16 60 9 9 15 17 13 19 -2 2
-39 6 -81 9 l-77 5 -3 -81 -3 -82 -124 -3 c-93 -2 -126 1 -133 10 -4 7 -8 36
-8 65 0 39 4 54 17 62 26 14 16 18 -65 24 -52 4 -74 3 -77 -6z m383 -176 c9
-5 12 -31 10 -92 l-3 -84 -45 0 -44 0 -4 -230 -3 -230 -27 -22 c-14 -12 -75
-47 -134 -78 l-108 -56 0 45 c0 24 6 51 13 58 7 7 16 21 20 31 3 9 13 17 22
17 8 0 15 5 15 10 0 6 -8 10 -17 10 -14 0 -15 2 -4 9 9 6 10 11 2 15 -6 4 -9
11 -6 16 3 4 -6 22 -20 38 -27 32 -35 98 -13 120 9 9 7 13 -5 18 -25 9 -21 28
21 99 23 40 46 68 61 73 24 8 23 9 -16 25 -23 9 -44 21 -48 27 -10 16 12 38
45 45 28 6 29 9 32 68 l3 62 80 6 c131 9 159 9 173 0z m-747 -774 c-13 -12
-20 -15 -16 -7 14 26 28 41 33 35 3 -3 -5 -16 -17 -28z m-436 -7 c3 -5 -3 -10
-14 -10 -11 0 -23 5 -26 10 -3 6 3 10 14 10 11 0 23 -4 26 -10z m455 -20 c0
-5 -4 -10 -10 -10 -5 0 -10 5 -10 10 0 6 5 10 10 10 6 0 10 -4 10 -10z m-480
-15 c0 -8 -7 -15 -15 -15 -8 0 -15 7 -15 15 0 8 7 15 15 15 8 0 15 -7 15 -15z
m-25 -65 c3 -5 1 -10 -4 -10 -6 0 -11 5 -11 10 0 6 2 10 4 10 3 0 8 -4 11 -10z
m115 -60 c-19 -13 -30 -13 -30 0 0 6 10 10 23 10 18 0 19 -2 7 -10z"/>
<path d="M3032 3695 c0 -16 2 -22 5 -12 2 9 2 23 0 30 -3 6 -5 -1 -5 -18z"/>
<path d="M5893 4603 c-13 -2 -23 -8 -23 -13 0 -5 14 -4 30 1 27 10 42 21 23
18 -5 -1 -18 -4 -30 -6z"/>
<path d="M5888 4553 c12 -2 30 -2 40 0 9 3 -1 5 -23 4 -22 0 -30 -2 -17 -4z"/>
<path d="M2401 4333 c-6 -7 -24 -13 -39 -13 -42 -1 -64 -24 -66 -70 -2 -39 -1
-40 29 -40 18 0 35 -3 39 -7 4 -4 26 -9 49 -10 55 -2 54 -2 37 -13 -9 -6 -10
-10 -3 -10 13 0 38 23 60 56 14 22 13 27 -7 69 -12 25 -25 46 -28 46 -31 6
-61 3 -71 -8z"/>
<path d="M2521 4288 c0 -7 4 -22 8 -32 7 -18 8 -18 14 -3 3 9 2 17 -3 17 -5 0
-7 7 -4 15 4 8 1 15 -5 15 -6 0 -11 -6 -10 -12z"/>
<path d="M430 4234 c-11 -12 -10 -18 3 -32 16 -15 18 -15 34 0 13 14 14 20 3
32 -7 9 -16 16 -20 16 -4 0 -13 -7 -20 -16z"/>
<path d="M2680 4180 c0 -5 5 -10 11 -10 5 0 7 5 4 10 -3 6 -8 10 -11 10 -2 0
-4 -4 -4 -10z"/>
<path d="M2674 4129 c-19 -20 -35 -28 -49 -25 -18 4 -18 3 4 -15 32 -26 78
-25 86 1 4 12 1 28 -6 36 -16 19 -4 30 16 14 13 -11 14 -10 9 4 -9 24 -27 20
-60 -15z"/>
<path d="M1362 4104 c-41 -28 -18 -104 31 -104 22 0 57 35 57 58 0 44 -52 72
-88 46z"/>
<path d="M431 4096 c-10 -11 -9 -19 1 -35 10 -17 10 -25 0 -41 -18 -30 3 -24
22 6 29 43 8 107 -23 70z"/>
<path d="M2286 4022 c-38 -23 -47 -81 -16 -112 11 -11 20 -25 20 -31 0 -6 9
-8 20 -4 13 4 30 -1 46 -14 21 -16 30 -18 40 -10 19 15 18 29 -2 29 -8 0 -13
4 -9 9 3 6 13 10 23 10 36 0 92 26 92 43 0 10 0 20 0 23 0 3 -1 4 -2 3 -2 -1
-14 4 -27 11 -17 10 -22 10 -16 1 6 -9 -1 -10 -26 -5 l-34 7 35 -27 c32 -23
33 -26 10 -21 -14 3 -35 8 -48 12 -18 5 -21 3 -15 -11 4 -12 3 -16 -4 -12 -6
4 -14 21 -17 39 -4 18 -14 43 -24 55 -17 22 -18 22 -46 5z"/>
<path d="M2649 3898 c-21 -21 -34 -38 -30 -38 9 0 76 69 70 72 -2 2 -20 -14
-40 -34z"/>
<path d="M1467 3903 c-25 -25 17 -96 84 -144 l30 -21 -26 37 c-14 22 -25 52
-25 71 0 45 -40 81 -63 57z"/>
<path d="M5932 3845 c0 -16 2 -22 5 -12 2 9 2 23 0 30 -3 6 -5 -1 -5 -18z"/>
<path d="M5862 3840 c0 -14 2 -19 5 -12 2 6 2 18 0 25 -3 6 -5 1 -5 -13z"/>
<path d="M5892 3840 c0 -14 2 -19 5 -12 2 6 2 18 0 25 -3 6 -5 1 -5 -13z"/>
<path d="M2566 3835 c-11 -8 -15 -15 -9 -15 6 0 16 7 23 15 16 19 11 19 -14 0z"/>
<path d="M5933 3700 c0 -30 2 -43 4 -27 2 15 2 39 0 55 -2 15 -4 2 -4 -28z"/>
<path d="M5897 3709 c4 -13 8 -18 11 -10 2 7 -1 18 -6 23 -8 8 -9 4 -5 -13z"/>
<path d="M5861 3704 c0 -11 3 -14 6 -6 3 7 2 16 -1 19 -3 4 -6 -2 -5 -13z"/>
<path d="M3091 3631 c-10 -6 -10 -10 -1 -16 13 -8 24 -1 19 14 -3 6 -10 7 -18
2z"/>
<path d="M5932 3605 c0 -16 2 -22 5 -12 2 9 2 23 0 30 -3 6 -5 -1 -5 -18z"/>
<path d="M3060 3609 c0 -14 28 -41 33 -32 2 5 -4 16 -15 26 -10 9 -18 12 -18
6z"/>
<path d="M5887 3602 c-15 -16 -15 -18 1 -18 10 0 18 8 18 18 0 10 -1 18 -2 18
0 0 -8 -8 -17 -18z"/>
<path d="M5932 3420 c0 -14 2 -19 5 -12 2 6 2 18 0 25 -3 6 -5 1 -5 -13z"/>
<path d="M5862 3410 c0 -14 2 -19 5 -12 2 6 2 18 0 25 -3 6 -5 1 -5 -13z"/>
<path d="M496 3393 c1 -16 3 -35 3 -42 1 -11 4 -12 12 -4 13 13 8 65 -6 70 -6
2 -10 -9 -9 -24z"/>
<path d="M393 3386 c4 -10 7 -24 7 -32 0 -8 5 -14 11 -14 15 0 6 53 -10 58
-10 3 -12 0 -8 -12z"/>
<path d="M447 3393 c-11 -10 -8 -53 3 -53 6 0 10 11 10 24 0 13 6 27 13 29 8
4 6 6 -4 6 -9 1 -19 -2 -22 -6z"/>
<path d="M5920 3359 c0 -5 5 -7 10 -4 6 3 10 8 10 11 0 2 -4 4 -10 4 -5 0 -10
-5 -10 -11z"/>
<path d="M490 3315 c0 -8 5 -15 10 -15 6 0 10 7 10 15 0 8 -4 15 -10 15 -5 0
-10 -7 -10 -15z"/>
<path d="M430 3285 c0 -8 6 -15 13 -15 8 0 14 7 14 15 0 8 -6 15 -14 15 -7 0
-13 -7 -13 -15z"/>
<path d="M498 3273 c7 -3 16 -2 19 1 4 3 -2 6 -13 5 -11 0 -14 -3 -6 -6z"/>
<path d="M496 3203 c2 -21 3 -56 4 -78 1 -37 2 -38 11 -15 13 31 8 122 -7 127
-7 2 -10 -10 -8 -34z"/>
<path d="M402 3198 c-16 -16 -15 -33 1 -46 10 -9 13 -4 13 23 0 19 0 35 -1 35
-1 0 -6 -5 -13 -12z"/>
<path d="M445 3175 c0 -39 9 -45 25 -16 7 15 6 23 -6 35 -8 9 -16 16 -17 16
-1 0 -2 -16 -2 -35z"/>
<path d="M5890 3135 c0 -9 5 -15 11 -13 6 2 11 8 11 13 0 5 -5 11 -11 13 -6 2
-11 -4 -11 -13z"/>
<path d="M3164 3048 c38 -43 70 -104 81 -150 l7 -28 -116 0 c-71 0 -116 -4
-116 -10 0 -6 45 -10 115 -10 l115 0 0 -50 c0 -65 -19 -109 -61 -144 -32 -27
-117 -71 -186 -96 -84 -31 -17 -138 73 -116 l24 6 0 -142 c-1 -239 -27 -405
-79 -488 -52 -84 -69 -97 -144 -108 -149 -23 -294 -86 -326 -144 -14 -24 -14
-28 4 -48 17 -19 27 -21 70 -16 67 7 193 72 280 143 l69 57 117 -12 c64 -6
127 -16 140 -20 l23 -9 -27 -7 c-15 -3 -27 -11 -27 -16 0 -6 -5 -10 -11 -10
-5 0 -7 5 -3 12 5 8 -2 9 -27 3 -19 -5 -53 -8 -76 -7 -36 1 -43 -2 -43 -18 0
-11 6 -20 13 -20 15 0 40 -38 32 -50 -3 -5 5 -12 17 -16 21 -6 21 -7 2 -22
-17 -13 -17 -14 -1 -8 50 17 68 18 66 5 -1 -8 1 -21 4 -29 4 -8 6 -240 4 -515
l-2 -500 -30 -3 c-47 -6 -103 16 -148 57 -54 48 -71 54 -98 32 -45 -37 4 -82
106 -97 61 -9 110 -52 120 -107 7 -37 8 -37 44 -31 57 10 117 42 132 72 11 21
15 103 19 372 l5 345 22 3 c18 3 24 -4 33 -40 62 -243 155 -419 293 -556 l64
-64 26 44 c14 25 41 53 61 63 34 18 47 35 28 35 -5 0 -36 18 -70 40 l-61 39
34 50 c30 46 75 147 75 171 0 6 9 10 19 10 11 0 23 5 26 10 3 6 17 10 30 10
13 0 28 6 32 12 4 7 19 19 32 26 21 13 23 12 17 -3 -3 -10 -13 -50 -21 -89 -8
-39 -19 -85 -24 -103 -8 -26 -6 -32 9 -36 14 -3 20 5 30 37 12 40 13 40 23 16
5 -14 12 -36 14 -50 2 -13 8 -29 13 -35 4 -5 8 -37 9 -69 0 -54 3 -63 33 -92
32 -31 98 -54 98 -34 0 6 -10 10 -22 11 -17 0 -10 6 23 20 l46 20 -34 34 c-33
33 -34 35 -17 60 26 39 62 44 91 11 13 -15 23 -37 23 -49 0 -16 3 -18 12 -9 7
7 17 12 23 12 5 0 3 -5 -5 -11 -12 -7 -8 -9 15 -7 28 3 30 6 27 38 -1 19 -10
41 -19 48 -9 6 -12 12 -6 12 5 0 10 13 11 29 0 22 -5 31 -21 35 l-22 6 25 19
c14 11 25 26 25 33 0 7 9 12 19 10 10 -2 23 4 30 14 9 12 15 14 20 6 10 -17
26 -15 26 4 0 23 23 44 50 44 6 0 10 8 11 18 0 14 2 14 9 -3 8 -19 9 -19 9 -1
1 15 4 16 15 7 9 -8 16 -8 20 -2 4 5 20 9 37 9 16 -1 35 4 41 10 9 9 9 12 -1
12 -7 0 -9 5 -4 13 4 6 8 21 8 32 0 15 8 21 30 23 45 5 48 23 9 49 -32 23 -38
33 -35 60 1 7 -4 10 -11 8 -8 -3 -14 4 -14 20 -3 51 -14 77 -27 66 -7 -5 -19
-6 -26 -2 -9 6 -7 10 9 14 21 5 21 6 5 31 -10 14 -21 23 -26 20 -5 -3 -8 0 -7
8 8 35 48 46 83 22 23 -16 39 -18 30 -4 -3 6 -1 10 5 10 7 0 9 -7 6 -16 -3 -9
-6 -18 -6 -21 0 -3 -7 0 -15 7 -9 8 -15 9 -15 2 0 -6 9 -17 20 -25 11 -8 17
-17 13 -20 -3 -4 -1 -7 6 -7 8 0 10 7 6 20 -4 14 -2 20 9 20 9 0 13 6 10 14
-3 7 4 30 16 50 11 21 17 42 14 48 -4 6 -1 14 6 18 10 6 8 19 -11 57 -26 52
-57 65 -99 43 -22 -12 -90 -4 -90 11 0 5 15 9 33 9 29 1 30 2 15 14 -24 17
-23 42 1 49 16 4 19 11 14 45 -5 39 -5 40 21 35 15 -3 33 -14 40 -24 13 -19
46 -17 46 3 0 5 4 7 10 3 5 -3 17 9 26 27 26 51 47 73 74 76 14 2 27 8 28 13
2 5 10 9 18 9 8 0 29 13 46 29 19 18 37 27 47 23 14 -5 14 -4 1 13 -14 17 -13
18 17 13 26 -3 33 0 42 19 14 30 14 43 1 23 -6 -9 -10 -10 -10 -3 0 6 5 15 10
18 6 3 10 18 10 32 0 18 4 24 15 19 9 -3 15 -1 14 7 -3 27 2 35 25 35 15 0 26
-7 29 -19 3 -10 22 -25 42 -33 48 -20 54 -20 52 3 -1 13 -6 17 -17 13 -13 -5
-13 -3 -2 11 8 8 19 15 25 13 7 -1 9 -1 5 1 -5 3 -5 15 -2 28 3 12 1 26 -6 30
-7 4 2 18 24 37 42 36 43 44 14 76 l-23 25 22 -5 c15 -4 23 0 26 13 4 14 0 19
-13 19 -13 0 -18 7 -17 21 1 15 6 19 21 15 14 -4 16 -2 7 7 -16 16 -14 27 4
21 11 -5 15 1 15 22 0 36 -14 59 -29 50 -7 -4 -11 1 -11 13 0 18 -3 19 -26 10
-15 -5 -35 -7 -45 -4 -11 4 -19 2 -19 -5 0 -8 -6 -8 -20 0 -11 6 -25 8 -31 4
-8 -4 -8 -1 -1 13 7 12 7 25 2 34 -5 7 -7 22 -4 32 3 11 0 17 -10 17 -9 0 -16
3 -16 8 0 4 -11 19 -25 34 -21 23 -32 27 -70 24 -25 -1 -49 2 -52 7 -4 6 -1 7
8 2 8 -5 11 -4 6 0 -15 17 -59 16 -71 0 -11 -15 -13 -15 -25 -1 -11 13 -11 16
2 16 9 0 19 5 23 12 4 7 3 8 -4 4 -8 -4 -10 -2 -6 8 8 21 27 26 70 16 46 -11
57 -5 44 21 -11 20 -40 27 -40 9 0 -5 -16 -10 -35 -10 -35 0 -51 19 -17 21 9
0 12 3 5 5 -7 3 -22 0 -34 -6 -17 -10 -20 -9 -17 2 3 7 17 14 31 16 15 2 27 8
27 13 0 5 5 9 10 9 6 0 10 -7 10 -15 0 -13 4 -14 20 -5 21 11 25 27 11 48 -6
11 -17 9 -55 -8 -25 -12 -46 -26 -46 -31 0 -5 -5 -9 -11 -9 -6 0 -8 7 -5 16 3
9 2 12 -5 9 -6 -4 -19 1 -29 10 -11 10 -26 14 -38 10 -14 -4 -27 1 -39 14 -24
26 -54 12 -36 -17 13 -22 3 -45 -18 -37 -11 4 -14 -6 -12 -50 2 -61 -14 -80
-60 -71 -12 2 -31 -2 -42 -10 -16 -12 -17 -14 -2 -14 13 0 16 -8 13 -40 -4
-38 -3 -40 22 -38 38 2 72 -11 72 -27 0 -8 11 -26 24 -41 l23 -28 29 23 c25
20 29 21 32 6 2 -9 10 -14 18 -11 7 3 18 -3 23 -12 9 -16 11 -16 27 0 16 16
16 17 -6 11 -15 -4 -21 -2 -16 5 3 6 2 13 -4 17 -5 3 -10 11 -10 17 0 6 9 3
20 -7 11 -10 30 -19 42 -20 13 -1 29 -3 36 -4 7 0 11 -5 7 -10 -3 -5 -1 -12 5
-16 5 -3 10 -11 10 -17 0 -6 -11 1 -25 16 -13 14 -27 26 -31 26 -4 0 5 -13 21
-30 16 -16 36 -30 46 -30 9 0 33 -7 54 -16 34 -14 77 -12 62 2 -8 8 18 34 32
34 6 0 11 4 11 10 0 5 6 7 14 4 8 -3 30 -1 50 4 27 8 38 7 46 -3 9 -11 7 -17
-9 -27 -12 -7 -21 -18 -21 -25 0 -16 31 -32 49 -25 8 3 11 0 7 -7 -4 -6 -15
-11 -24 -12 -12 0 -10 -3 7 -10 19 -8 21 -12 11 -24 -10 -12 -16 -13 -28 -3
-13 10 -14 10 -8 1 5 -9 0 -13 -13 -13 -12 0 -21 -6 -21 -12 0 -9 -3 -8 -9 2
-6 8 -8 17 -5 21 2 4 -5 10 -16 14 -11 3 -20 10 -20 13 0 4 -21 14 -47 21 -27
7 -61 17 -76 21 -17 6 -25 6 -22 0 9 -14 -1 -12 -37 6 -20 10 -28 11 -23 3 6
-9 2 -11 -15 -6 -30 8 -61 -9 -54 -28 7 -18 0 -19 -27 -5 -22 12 -25 36 -6 43
6 3 -6 5 -28 6 -61 0 -77 -11 -91 -60 -17 -57 -17 -62 2 -55 8 3 12 2 9 -4 -3
-6 -13 -10 -21 -10 -8 0 -18 -8 -21 -17 -4 -9 -15 -25 -25 -35 -21 -21 -16
-38 13 -38 11 0 20 -7 20 -17 1 -10 3 -25 3 -33 7 -72 37 -110 88 -110 15 0
29 -4 32 -8 8 -13 -87 -130 -116 -143 -15 -6 -37 -20 -49 -30 -12 -11 -24 -17
-26 -15 -9 8 18 46 32 46 8 0 15 5 15 10 0 17 -16 11 -51 -20 -34 -30 -59 -38
-59 -20 0 6 -9 6 -24 0 -13 -5 -27 -6 -30 -3 -3 4 -6 1 -6 -5 0 -6 -15 -10
-34 -9 -19 1 -34 6 -33 11 1 5 -4 11 -12 14 -8 2 -11 0 -7 -6 3 -5 0 -12 -8
-15 -9 -4 -12 0 -9 13 4 13 -8 24 -49 43 -29 14 -55 22 -58 19 -11 -15 -40 -9
-40 8 0 10 -10 31 -23 47 -17 21 -23 40 -22 75 0 48 -14 64 -55 58 -11 -1 -9
5 7 22 l23 24 -45 38 -45 37 -18 -39 -18 -40 -23 19 c-30 24 -52 25 -44 2 4
-13 -3 -10 -24 10 -17 15 -40 27 -56 27 -19 0 -27 5 -28 18 0 9 -8 -3 -18 -27
-11 -28 -20 -39 -24 -30 -3 8 -6 3 -6 -12 -1 -28 -17 -39 -55 -39 -43 0 -46
13 -46 231 l0 207 50 36 c44 32 50 40 50 72 0 29 -7 44 -35 69 -35 33 -109 65
-153 65 l-24 0 22 -34 c11 -19 17 -37 12 -39 -4 -3 -55 -13 -114 -21 -135 -20
-287 -21 -314 -2 -23 17 -25 14 55 57 81 43 163 117 190 172 31 63 28 153 -5
228 l-27 59 -129 0 -130 0 36 -42z m486 -514 c11 -26 28 -53 38 -60 15 -12 8
-13 -50 -14 l-68 0 0 -270 c0 -324 -5 -310 115 -310 l76 0 -16 -30 c-11 -21
-23 -30 -39 -30 -19 0 -26 -7 -31 -32 -4 -18 -18 -49 -32 -69 -20 -30 -28 -35
-51 -31 -15 2 -33 10 -41 16 -11 8 -15 8 -18 -1 -3 -7 -11 -13 -18 -13 -11 0
-12 7 -4 32 13 46 11 58 -7 51 -8 -3 -25 3 -37 14 -40 37 -64 36 -125 -3 -2
-1 6 -20 17 -43 27 -51 26 -58 -4 -63 -14 -3 -25 -1 -25 4 0 6 -7 8 -15 4 -8
-3 -49 1 -90 10 -40 8 -110 18 -154 22 l-80 7 50 65 c110 141 166 303 176 513
5 105 9 130 22 135 10 4 0 10 -29 17 l-45 12 225 55 c124 31 228 57 232 57 4
1 16 -20 28 -45z m1160 22 c0 -11 -19 -15 -25 -6 -3 5 1 10 9 10 9 0 16 -2 16
-4z m-100 -45 c0 -8 -43 -41 -55 -41 -15 0 -2 32 18 40 29 12 37 12 37 1z
m185 -1 c3 -5 1 -10 -4 -10 -6 0 -11 5 -11 10 0 6 2 10 4 10 3 0 8 -4 11 -10z
m53 -45 c41 -17 61 -42 23 -30 -11 3 -22 1 -26 -5 -7 -12 -42 -14 -48 -2 -2 4
-7 20 -11 36 -5 21 -4 27 6 23 7 -2 32 -13 56 -22z m287 -135 c3 -5 2 -10 -4
-10 -5 0 -13 5 -16 10 -3 6 -2 10 4 10 5 0 13 -4 16 -10z m-225 -90 c0 -5 -2
-10 -4 -10 -3 0 -8 5 -11 10 -3 6 -1 10 4 10 6 0 11 -4 11 -10z m67 -53 c15
-15 14 -16 -16 -12 -17 2 -41 11 -54 20 -21 15 -21 16 16 12 21 -2 45 -11 54
-20z m-65 -34 c6 1 17 -9 24 -21 7 -15 13 -19 16 -11 3 8 9 9 21 3 11 -7 13
-14 7 -24 -7 -11 -10 -11 -10 -2 0 7 -5 10 -11 6 -8 -5 -4 -13 11 -24 l23 -17
-26 -18 c-15 -9 -24 -21 -21 -26 3 -5 -4 -9 -16 -9 -13 0 -20 5 -17 13 2 6 9
11 15 10 5 -1 18 7 27 17 11 12 13 20 7 20 -7 0 -12 -4 -12 -9 0 -5 -12 -8
-26 -8 -14 0 -21 3 -15 7 16 9 3 40 -15 33 -16 -6 -19 13 -4 22 6 4 8 11 4 16
-4 6 -11 6 -20 -2 -9 -7 -14 -8 -14 -1 0 6 -3 18 -6 26 -5 14 -2 15 20 6 15
-5 32 -9 38 -7z m-1165 -105 c-3 -8 -6 -5 -6 6 -1 11 2 17 5 13 3 -3 4 -12 1
-19z m196 -85 c18 -9 27 -18 20 -20 -6 -2 -29 5 -50 16 -23 12 -31 20 -20 21
10 0 32 -7 50 -17z m-114 -69 c1 -1 0 -7 -4 -13 -8 -14 -55 -14 -55 -1 0 6 -9
10 -21 10 -11 0 -17 -4 -14 -10 4 -6 -5 -10 -19 -10 -36 0 -32 14 7 26 27 9
94 8 106 -2z m116 -36 c1 -18 5 -46 9 -63 6 -25 5 -28 -6 -15 -7 9 -22 15 -33
15 -15 0 -20 7 -22 29 -1 16 -5 36 -8 44 -3 9 0 12 9 9 8 -3 20 1 27 9 16 19
22 12 24 -28z m-77 -13 c6 -13 8 -27 3 -29 -7 -5 -31 34 -31 49 0 15 18 1 28
-20z m952 -5 c0 -5 -2 -10 -4 -10 -3 0 -8 5 -11 10 -3 6 -1 10 4 10 6 0 11 -4
11 -10z m-2042 -179 c-119 -103 -308 -172 -308 -111 0 48 194 136 308 139 l33
1 -33 -29z m1462 9 c-11 -7 -11 -35 0 -75 1 -5 2 -27 1 -48 -1 -30 -6 -40 -22
-44 -12 -4 -18 -11 -15 -20 10 -25 -5 -35 -25 -17 -10 9 -19 14 -19 10 0 -4
-5 -4 -11 -1 -7 5 -2 16 13 32 13 13 22 28 20 31 -1 4 8 39 20 78 16 52 26 70
36 67 10 -4 11 -8 2 -13z m220 10 c0 -5 -2 -10 -4 -10 -3 0 -8 5 -11 10 -3 6
-1 10 4 10 6 0 11 -4 11 -10z m-696 -74 c11 4 16 0 16 -14 0 -20 77 -82 102
-82 6 0 35 -12 64 -26 36 -17 57 -36 66 -55 7 -16 21 -32 30 -35 10 -3 18 -10
18 -16 0 -6 -6 -6 -15 2 -13 11 -18 10 -29 -6 -10 -13 -11 -21 -4 -25 6 -4 8
-11 4 -17 -4 -6 2 -8 13 -5 15 4 20 0 18 -14 0 -11 -6 -20 -12 -20 -5 0 -18
-4 -27 -8 -12 -5 -18 -3 -18 5 0 7 -11 1 -24 -13 -16 -18 -31 -25 -42 -20 -14
5 -15 3 -5 -16 7 -12 8 -21 4 -20 -24 4 -43 -3 -43 -16 0 -10 -9 -14 -24 -13
-14 1 -37 -4 -52 -12 -21 -12 -28 -12 -31 -3 -3 9 -10 10 -23 3 -15 -8 -19 -4
-24 22 -3 18 -22 65 -42 104 l-36 72 21 21 c28 28 26 39 -4 47 -14 3 -25 12
-25 20 0 8 -4 14 -9 14 -19 0 -19 45 0 80 15 26 28 36 47 38 15 1 28 7 30 12
2 6 10 6 22 0 10 -5 26 -7 34 -4z m646 -1 c0 -8 -4 -15 -10 -15 -5 0 -10 7
-10 15 0 8 5 15 10 15 6 0 10 -7 10 -15z m-335 -103 c-3 -3 -11 0 -18 7 -9 10
-8 11 6 5 10 -3 15 -9 12 -12z m-765 -12 c0 -5 -2 -10 -4 -10 -3 0 -8 5 -11
10 -3 6 -1 10 4 10 6 0 11 -4 11 -10z m34 -16 c12 -5 14 -10 6 -19 -8 -9 -6
-14 5 -19 8 -3 15 -12 15 -21 0 -9 9 -15 24 -15 14 0 28 -5 31 -10 4 -7 14 -5
28 5 12 8 31 15 42 15 11 0 33 7 49 15 26 14 31 14 44 1 13 -12 11 -17 -8 -33
-13 -10 -34 -27 -48 -39 -18 -15 -25 -30 -24 -52 0 -18 -3 -32 -8 -32 -4 0
-11 -22 -15 -49 -4 -28 -13 -56 -22 -62 -11 -10 -13 -24 -8 -55 5 -38 3 -44
-22 -62 -15 -10 -43 -27 -61 -36 l-33 -17 -35 77 c-45 96 -84 248 -84 324 0
58 0 59 33 66 17 4 37 7 44 6 6 -2 14 2 18 8 7 12 8 12 29 4z m316 -43 c0 -3
-8 -11 -18 -18 -15 -9 -21 -7 -30 7 -10 17 -8 19 18 18 17 -1 30 -4 30 -7z
m16 -147 c13 -27 25 -63 28 -80 2 -16 1 -23 -1 -16 -5 12 -15 16 -45 13 -9 -1
-22 7 -28 18 -6 12 -20 21 -30 21 -24 0 -27 18 -5 26 12 5 13 10 4 20 -6 8 -8
14 -3 14 5 0 2 5 -6 10 -12 7 -11 13 10 35 23 25 25 25 38 8 8 -10 25 -41 38
-69z m404 -24 c0 -5 -5 -10 -11 -10 -5 0 -7 5 -4 10 3 6 8 10 11 10 2 0 4 -4
4 -10z m135 -20 c-4 -12 -9 -19 -12 -17 -3 3 -2 15 2 27 4 12 9 19 12 17 3 -3
2 -15 -2 -27z m120 -60 c3 -5 1 -10 -4 -10 -6 0 -11 5 -11 10 0 6 2 10 4 10 3
0 8 -4 11 -10z m90 -80 c8 -13 -5 -13 -25 0 -13 8 -13 10 2 10 9 0 20 -4 23
-10z m-979 -145 c118 -16 167 -25 189 -36 11 -5 32 -13 48 -19 17 -6 27 -17
27 -29 0 -26 -81 -184 -98 -189 -16 -5 -143 117 -198 192 -43 57 -58 104 -30
93 7 -3 35 -8 62 -12z m584 -325 c0 -5 -5 -10 -11 -10 -5 0 -7 5 -4 10 3 6 8
10 11 10 2 0 4 -4 4 -10z"/>
<path d="M3335 2462 c-3 -3 -5 -133 -5 -290 l0 -285 47 7 c26 3 53 12 60 19
14 14 20 540 6 543 -26 7 -103 11 -108 6z"/>
<path d="M4060 1442 c0 -5 7 -13 16 -16 10 -4 14 -1 12 6 -5 15 -28 23 -28 10z"/>
<path d="M3338 1423 c7 -3 16 -2 19 1 4 3 -2 6 -13 5 -11 0 -14 -3 -6 -6z"/>
<path d="M498 2983 c4 -92 22 -80 22 15 0 43 -4 62 -12 62 -10 0 -12 -20 -10
-77z"/>
<path d="M2766 3015 c15 -20 42 -64 58 -98 39 -77 72 -94 111 -57 68 64 -15
163 -154 185 l-44 7 29 -37z"/>
<path d="M440 3021 c0 -5 -12 -23 -26 -40 -28 -33 -22 -40 13 -16 14 10 24 12
28 5 3 -5 12 -10 18 -10 7 0 3 7 -7 15 -16 12 -17 18 -8 27 16 16 15 28 -3 28
-8 0 -15 -4 -15 -9z"/>
<path d="M3690 2920 l-35 -50 -87 0 c-52 0 -88 -4 -88 -10 0 -11 324 -13 353
-2 14 6 7 16 -42 60 -33 28 -61 52 -63 52 -2 0 -19 -23 -38 -50z"/>
<path d="M5880 2879 c0 -5 5 -7 10 -4 6 3 10 8 10 11 0 2 -4 4 -10 4 -5 0 -10
-5 -10 -11z"/>
<path d="M410 2855 c0 -14 6 -25 14 -25 9 0 12 8 8 25 -2 14 -8 25 -13 25 -5
0 -9 -11 -9 -25z"/>
<path d="M488 2833 c7 -3 16 -2 19 1 4 3 -2 6 -13 5 -11 0 -14 -3 -6 -6z"/>
<path d="M5885 2810 c-3 -5 -2 -10 4 -10 5 0 13 5 16 10 3 6 2 10 -4 10 -5 0
-13 -4 -16 -10z"/>
<path d="M508 2803 c6 -2 18 -2 25 0 6 3 1 5 -13 5 -14 0 -19 -2 -12 -5z"/>
<path d="M417 2761 c3 -12 10 -21 15 -21 13 0 6 32 -9 37 -7 3 -9 -3 -6 -16z"/>
<path d="M2684 2751 c9 -10 35 -54 59 -97 40 -75 44 -79 79 -82 71 -6 88 70
30 130 -28 30 -117 68 -159 68 -25 0 -25 -1 -9 -19z"/>
<path d="M488 2743 c7 -3 16 -2 19 1 4 3 -2 6 -13 5 -11 0 -14 -3 -6 -6z"/>
<path d="M2886 2505 c-120 -247 -138 -275 -171 -275 l-23 0 28 -28 c35 -36 45
-105 32 -216 -12 -91 -4 -123 33 -132 40 -10 74 4 95 39 27 43 25 102 -5 189
-41 118 -37 146 73 486 27 83 48 152 47 152 -2 0 -51 -97 -109 -215z"/>
<path d="M5928 2673 c6 -65 10 -70 11 -15 0 28 -3 52 -7 52 -4 0 -6 -17 -4
-37z"/>
<path d="M4585 2690 c-3 -5 -1 -10 4 -10 6 0 11 5 11 10 0 6 -2 10 -4 10 -3 0
-8 -4 -11 -10z"/>
<path d="M5871 2660 c6 -16 15 -30 19 -30 5 0 2 14 -6 30 -9 17 -17 30 -19 30
-2 0 1 -13 6 -30z"/>
<path d="M427 2590 c-3 -11 -1 -20 4 -20 5 0 9 2 9 4 0 2 3 11 6 20 3 9 2 16
-4 16 -5 0 -12 -9 -15 -20z"/>
<path d="M493 2590 c-2 -24 12 -27 21 -4 8 22 8 24 -7 24 -7 0 -13 -9 -14 -20z"/>
<path d="M450 2565 c0 -8 5 -15 10 -15 6 0 10 7 10 15 0 8 -4 15 -10 15 -5 0
-10 -7 -10 -15z"/>
<path d="M395 2550 c3 -5 8 -10 11 -10 2 0 4 5 4 10 0 6 -5 10 -11 10 -5 0 -7
-4 -4 -10z"/>
<path d="M518 2553 c7 -3 16 -2 19 1 4 3 -2 6 -13 5 -11 0 -14 -3 -6 -6z"/>
<path d="M4950 2556 c0 -2 7 -6 15 -10 8 -3 15 -1 15 4 0 6 -7 10 -15 10 -8 0
-15 -2 -15 -4z"/>
<path d="M445 2530 c4 -6 11 -8 16 -5 14 9 11 15 -7 15 -8 0 -12 -5 -9 -10z"/>
<path d="M435 2490 c-10 -11 -14 -20 -9 -20 12 1 44 25 44 34 0 12 -17 6 -35
-14z"/>
<path d="M480 2486 c0 -2 7 -7 16 -10 8 -3 12 -2 9 4 -6 10 -25 14 -25 6z"/>
<path d="M484 2434 c3 -8 6 -46 6 -82 0 -47 3 -63 10 -52 5 8 10 25 10 37 0
12 8 24 18 26 16 4 16 5 0 6 -14 1 -18 10 -18 35 0 22 -6 36 -16 40 -12 5 -15
2 -10 -10z"/>
<path d="M398 2413 c7 -3 16 -2 19 1 4 3 -2 6 -13 5 -11 0 -14 -3 -6 -6z"/>
<path d="M450 2393 c0 -22 2 -25 10 -13 13 20 13 40 0 40 -5 0 -10 -12 -10
-27z"/>
<path d="M5890 2396 c0 -9 7 -16 16 -16 17 0 14 22 -4 28 -7 2 -12 -3 -12 -12z"/>
<path d="M417 2360 c4 -16 0 -20 -18 -21 -18 -1 -20 -2 -6 -6 29 -8 46 4 40
26 -3 12 -9 21 -13 21 -5 0 -6 -9 -3 -20z"/>
<path d="M4730 2320 c0 -5 5 -10 11 -10 5 0 7 5 4 10 -3 6 -8 10 -11 10 -2 0
-4 -4 -4 -10z"/>
<path d="M443 2163 c9 -2 23 -2 30 0 6 3 -1 5 -18 5 -16 0 -22 -2 -12 -5z"/>
<path d="M405 2140 c4 -6 11 -8 16 -5 14 9 11 15 -7 15 -8 0 -12 -5 -9 -10z"/>
<path d="M424 2119 c-3 -6 0 -18 9 -26 13 -13 15 -12 15 11 0 27 -12 34 -24
15z"/>
<path d="M473 2104 c0 -23 1 -24 14 -11 9 8 12 20 9 26 -12 19 -23 12 -23 -15z"/>
<path d="M5881 2114 c0 -11 3 -14 6 -6 3 7 2 16 -1 19 -3 4 -6 -2 -5 -13z"/>
<path d="M5913 2115 c0 -8 4 -12 9 -9 5 3 6 10 3 15 -9 13 -12 11 -12 -6z"/>
<path d="M508 2063 c7 -3 16 -2 19 1 4 3 -2 6 -13 5 -11 0 -14 -3 -6 -6z"/>
<path d="M398 2053 c7 -3 16 -2 19 1 4 3 -2 6 -13 5 -11 0 -14 -3 -6 -6z"/>
<path d="M4561 2034 c0 -11 3 -14 6 -6 3 7 2 16 -1 19 -3 4 -6 -2 -5 -13z"/>
<path d="M4283 2033 c-7 -3 -13 -14 -13 -24 0 -11 5 -17 10 -14 6 3 10 1 10
-6 0 -8 4 -8 15 1 13 10 15 9 15 -9 0 -12 4 -20 9 -17 23 14 -21 78 -46 69z"/>
<path d="M486 1983 c-12 -12 -6 -33 9 -33 8 0 15 6 15 14 0 17 -14 28 -24 19z"/>
<path d="M4246 1965 c4 -8 11 -15 16 -15 6 0 5 6 -2 15 -7 8 -14 15 -16 15 -2
0 -1 -7 2 -15z"/>
<path d="M4350 1965 c-7 -8 -18 -15 -25 -15 -14 0 -26 -46 -18 -67 10 -26 46
-9 69 33 22 39 22 41 4 52 -14 9 -21 8 -30 -3z"/>
<path d="M5065 1950 c3 -5 8 -10 11 -10 2 0 4 5 4 10 0 6 -5 10 -11 10 -5 0
-7 -4 -4 -10z"/>
<path d="M5875 1950 c3 -5 8 -10 11 -10 2 0 4 5 4 10 0 6 -5 10 -11 10 -5 0
-7 -4 -4 -10z"/>
<path d="M410 1930 c0 -11 6 -20 13 -20 7 0 13 9 13 20 0 11 -6 20 -13 20 -7
0 -13 -9 -13 -20z"/>
<path d="M488 1913 c7 -3 16 -2 19 1 4 3 -2 6 -13 5 -11 0 -14 -3 -6 -6z"/>
<path d="M508 1883 c6 -2 18 -2 25 0 6 3 1 5 -13 5 -14 0 -19 -2 -12 -5z"/>
<path d="M398 1873 c7 -3 16 -2 19 1 4 3 -2 6 -13 5 -11 0 -14 -3 -6 -6z"/>
<path d="M5881 1834 c0 -11 3 -14 6 -6 3 7 2 16 -1 19 -3 4 -6 -2 -5 -13z"/>
<path d="M5921 1834 c0 -11 3 -14 6 -6 3 7 2 16 -1 19 -3 4 -6 -2 -5 -13z"/>
<path d="M410 1795 c0 -14 5 -25 10 -25 6 0 10 11 10 25 0 14 -4 25 -10 25 -5
0 -10 -11 -10 -25z"/>
<path d="M4450 1778 c0 -20 1 -21 20 -3 11 10 20 20 20 22 0 1 -9 3 -20 3 -14
0 -20 -7 -20 -22z"/>
<path d="M5880 1785 c0 -8 2 -15 4 -15 2 0 6 7 10 15 3 8 1 15 -4 15 -6 0 -10
-7 -10 -15z"/>
<path d="M5922 1780 c0 -14 2 -19 5 -12 2 6 2 18 0 25 -3 6 -5 1 -5 -13z"/>
<path d="M485 1780 c-3 -5 1 -10 10 -10 9 0 13 5 10 10 -3 6 -8 10 -10 10 -2
0 -7 -4 -10 -10z"/>
<path d="M390 1740 c0 -5 5 -10 11 -10 5 0 7 5 4 10 -3 6 -8 10 -11 10 -2 0
-4 -4 -4 -10z"/>
<path d="M508 1743 c6 -2 18 -2 25 0 6 3 1 5 -13 5 -14 0 -19 -2 -12 -5z"/>
<path d="M417 1700 c3 -11 9 -20 14 -20 5 0 9 9 9 20 0 11 -6 20 -14 20 -9 0
-12 -7 -9 -20z"/>
<path d="M488 1683 c6 -2 18 -2 25 0 6 3 1 5 -13 5 -14 0 -19 -2 -12 -5z"/>
<path d="M5890 1555 c0 -9 5 -15 11 -13 6 2 11 8 11 13 0 5 -5 11 -11 13 -6 2
-11 -4 -11 -13z"/>
<path d="M480 1535 c0 -14 5 -25 10 -25 6 0 10 11 10 25 0 14 -4 25 -10 25 -5
0 -10 -11 -10 -25z"/>
<path d="M417 1530 c3 -11 9 -20 14 -20 5 0 9 9 9 20 0 11 -6 20 -14 20 -9 0
-12 -7 -9 -20z"/>
<path d="M390 1490 c0 -5 5 -10 11 -10 5 0 7 5 4 10 -3 6 -8 10 -11 10 -2 0
-4 -4 -4 -10z"/>
<path d="M508 1493 c6 -2 18 -2 25 0 6 3 1 5 -13 5 -14 0 -19 -2 -12 -5z"/>
<path d="M450 1480 c0 -5 5 -10 10 -10 6 0 10 5 10 10 0 6 -4 10 -10 10 -5 0
-10 -4 -10 -10z"/>
<path d="M418 1463 c7 -3 16 -2 19 1 4 3 -2 6 -13 5 -11 0 -14 -3 -6 -6z"/>
<path d="M480 1455 c0 -8 5 -15 10 -15 6 0 10 7 10 15 0 8 -4 15 -10 15 -5 0
-10 -7 -10 -15z"/>
<path d="M420 1425 c0 -8 5 -15 10 -15 6 0 10 7 10 15 0 8 -4 15 -10 15 -5 0
-10 -7 -10 -15z"/>
<path d="M488 1413 c7 -3 16 -2 19 1 4 3 -2 6 -13 5 -11 0 -14 -3 -6 -6z"/>
<path d="M4566 1295 c-3 -8 -1 -15 4 -15 6 0 10 7 10 15 0 8 -2 15 -4 15 -2 0
-6 -7 -10 -15z"/>
<path d="M5921 1294 c0 -11 3 -14 6 -6 3 7 2 16 -1 19 -3 4 -6 -2 -5 -13z"/>
<path d="M4705 1271 c-7 -13 2 -70 17 -98 13 -25 28 -21 28 8 0 20 15 51 40
83 13 17 13 18 0 11 -23 -14 -48 -16 -55 -5 -8 13 -22 13 -30 1z"/>
<path d="M2984 1178 l-39 -40 -70 5 c-39 3 -102 2 -140 -1 -62 -6 -54 -8 75
-12 l145 -5 3 -27 c2 -15 -9 -71 -23 -125 -50 -183 -134 -353 -230 -461 -52
-58 -50 -59 25 -8 155 105 287 300 352 520 16 54 28 81 40 84 25 6 23 11 -24
51 -76 65 -71 65 -114 19z"/>
<path d="M5890 1105 c-11 -13 -10 -14 4 -9 9 3 16 10 16 15 0 13 -6 11 -20 -6z"/>
<path d="M4773 1083 c-7 -3 -13 -16 -13 -29 0 -17 -6 -24 -19 -24 -10 0 -22
-7 -25 -16 -8 -20 12 -57 28 -51 7 3 13 -4 13 -15 2 -16 -1 -18 -15 -8 -9 7
-4 1 11 -14 36 -33 62 -33 84 2 10 15 26 33 35 40 10 7 18 24 18 38 0 13 5 24
11 24 6 0 9 6 6 13 -2 6 -12 10 -22 9 -16 -3 -17 -1 -7 11 11 13 7 15 -35 12
-26 -1 -50 1 -53 5 -3 4 -11 5 -17 3z m77 -83 c0 -5 -6 -10 -14 -10 -8 0 -18
5 -21 10 -3 6 3 10 14 10 12 0 21 -4 21 -10z"/>
<path d="M5902 1045 c0 -16 2 -22 5 -12 2 9 2 23 0 30 -3 6 -5 -1 -5 -18z"/>
<path d="M4686 913 c-6 -14 -5 -15 5 -6 7 7 10 15 7 18 -3 3 -9 -2 -12 -12z"/>
<path d="M2612 754 c-28 -20 -30 -69 -3 -84 32 -17 60 -12 76 14 19 28 9 58
-25 76 -24 13 -21 13 -48 -6z"/>
<path d="M3570 549 c-22 -18 -22 -19 -3 -10 12 6 25 16 28 21 9 15 3 12 -25
-11z"/>
<path d="M1968 553 c7 -3 16 -2 19 1 4 3 -2 6 -13 5 -11 0 -14 -3 -6 -6z"/>
<path d="M2419 548 c-16 -5 -30 -21 -38 -44 -9 -25 -22 -39 -42 -46 -19 -6
-29 -17 -28 -27 1 -9 -1 -24 -6 -34 -5 -12 -1 -25 14 -41 21 -23 29 -42 12
-32 -5 4 -7 -3 -4 -14 3 -11 0 -20 -6 -20 -6 0 -11 4 -11 10 0 5 -7 7 -15 4
-23 -9 -18 -20 8 -19 13 0 31 8 41 18 10 9 23 17 29 17 6 0 -11 -23 -38 -51
l-50 -51 38 4 c46 5 47 -4 5 -25 -32 -15 -33 -15 -45 6 -7 12 -10 31 -6 41 4
14 1 18 -10 13 -8 -3 -18 0 -20 7 -6 16 -53 13 -49 -3 1 -6 -5 -14 -13 -17 -8
-4 -15 -15 -15 -25 0 -10 -4 -19 -10 -19 -5 0 -10 -9 -10 -20 0 -11 -4 -20 -9
-20 -14 0 -22 -29 -15 -56 3 -13 11 -24 16 -24 5 0 23 -9 39 -21 17 -12 27
-15 24 -7 -2 7 9 24 26 36 28 23 31 23 54 8 34 -23 81 -11 90 22 3 14 1 28 -5
32 -6 4 -8 14 -4 23 3 9 10 14 15 11 13 -8 10 7 -6 36 -16 28 -20 70 -6 70 5
0 13 9 16 20 4 12 14 20 23 18 9 -1 30 1 45 5 23 6 27 12 21 29 -3 11 -1 23 4
27 8 4 8 11 1 21 -9 12 -11 13 -16 1 -5 -11 -7 -11 -14 0 -7 12 -12 12 -30 1
-27 -17 -33 -11 -18 22 12 25 37 31 32 7 -2 -6 2 -11 7 -11 6 0 10 4 10 9 0 5
27 7 60 4 53 -5 60 -4 54 11 -3 9 -13 16 -22 16 -8 0 -13 3 -9 6 3 4 0 13 -8
21 -9 9 -13 24 -9 39 7 27 -5 31 -38 13 -13 -7 -23 -7 -27 -2 -4 6 -16 7 -32
1z m66 -39 c5 -6 3 -9 -7 -9 -9 0 -18 -4 -20 -10 -1 -5 -14 3 -28 17 l-25 26
35 -8 c19 -4 39 -11 45 -16z m-111 -73 c-6 -16 -34 -30 -34 -18 0 10 22 32 32
32 4 0 5 -6 2 -14z m-30 -318 c-3 -4 -9 -8 -15 -8 -5 0 -9 4 -9 8 0 5 7 9 15
9 8 0 12 -4 9 -9z m-154 -18 c0 -5 -5 -10 -11 -10 -5 0 -7 5 -4 10 3 6 8 10
11 10 2 0 4 -4 4 -10z"/>
<path d="M1975 521 c-7 -19 32 -50 63 -51 26 0 28 -12 6 -31 -13 -10 -17 -10
-25 2 -7 11 -9 10 -9 -6 -1 -19 -1 -19 -15 -1 -14 18 -52 16 -41 -3 3 -5 -3
-7 -14 -4 -27 7 -26 -18 0 -35 12 -7 18 -17 14 -23 -4 -7 1 -7 15 1 17 8 26 8
36 0 10 -9 15 -6 20 9 3 11 11 20 18 18 6 -1 11 7 12 18 0 11 9 21 23 25 l23
5 -21 17 c-21 19 -27 38 -10 38 21 0 9 18 -17 26 -45 13 -72 11 -78 -5z"/>
<path d="M3360 470 l-25 -8 27 -1 c15 -1 30 4 33 9 7 11 0 11 -35 0z"/>
<path d="M2507 406 c-4 -10 -1 -13 9 -9 15 6 19 23 5 23 -5 0 -11 -7 -14 -14z"/>
<path d="M3907 363 c-3 -16 -9 -36 -12 -45 -6 -14 -2 -18 14 -18 12 0 21 6 21
14 0 7 3 28 6 45 5 24 3 31 -8 31 -9 0 -18 -12 -21 -27z"/>
<path d="M2510 370 c0 -5 7 -10 16 -10 8 0 12 5 9 10 -3 6 -10 10 -16 10 -5 0
-9 -4 -9 -10z"/>
<path d="M2140 316 c0 -9 5 -16 10 -16 6 0 10 4 10 9 0 6 -4 13 -10 16 -5 3
-10 -1 -10 -9z"/>
<path d="M2315 50 c3 -5 8 -10 11 -10 2 0 4 5 4 10 0 6 -5 10 -11 10 -5 0 -7
-4 -4 -10z"/>
<path d="M2250 16 c0 -10 8 -16 22 -16 12 0 19 1 17 3 -2 1 -12 9 -21 16 -15
12 -18 11 -18 -3z"/>
</g>
</svg>
