<svg width="512" height="512" version="1.1" xmlns="http://www.w3.org/2000/svg" desc="Created with imagetracer.js version 1.2.6" ><path fill="rgb(0,0,0)" stroke="rgb(0,0,0)" stroke-width="1" opacity="0.6352941176470588" d="M 150.5 0 L 154 0.5 L 150.5 1 L 150.5 0 Z " /><path fill="rgb(0,0,0)" stroke="rgb(0,0,0)" stroke-width="1" opacity="0.6352941176470588" d="M 163.5 0 L 167 0.5 L 163.5 1 L 163.5 0 Z " /><path fill="rgb(0,0,0)" stroke="rgb(0,0,0)" stroke-width="1" opacity="0.6352941176470588" d="M 296.5 6 L 295.5 8 L 296.5 6 Z " /><path fill="rgb(0,0,0)" stroke="rgb(0,0,0)" stroke-width="1" opacity="0.6352941176470588" d="M 320.5 6 L 321.5 8 L 320.5 6 Z " /><path fill="rgb(0,0,0)" stroke="rgb(0,0,0)" stroke-width="1" opacity="0.6352941176470588" d="M 356.5 6 L 355.5 8 L 356.5 6 Z " /><path fill="rgb(0,0,0)" stroke="rgb(0,0,0)" stroke-width="1" opacity="0.6352941176470588" d="M 416.5 6 L 415.5 8 L 416.5 6 Z " /><path fill="rgb(0,0,0)" stroke="rgb(0,0,0)" stroke-width="1" opacity="0.6352941176470588" d="M 120.5 13 L 119.5 15 L 120.5 13 Z " /><path fill="rgb(0,0,0)" stroke="rgb(0,0,0)" stroke-width="1" opacity="0.6352941176470588" d="M 196.5 13 L 197.5 15 L 196.5 13 Z " /><path fill="rgb(0,0,0)" stroke="rgb(0,0,0)" stroke-width="1" opacity="0.6352941176470588" d="M 293.5 13 L 294 168.5 L 293 168.5 L 293.5 13 Z " /><path fill="rgb(0,0,0)" stroke="rgb(0,0,0)" stroke-width="1" opacity="0.6352941176470588" d="M 323.5 13 L 324 119.5 L 323 119.5 L 323.5 13 Z " /><path fill="rgb(0,0,0)" stroke="rgb(0,0,0)" stroke-width="1" opacity="0.6352941176470588" d="M 353.5 13 L 354 119.5 L 353 119.5 L 353.5 13 Z " /><path fill="rgb(0,0,0)" stroke="rgb(0,0,0)" stroke-width="1" opacity="0.6352941176470588" d="M 383.5 13 L 384 119.5 L 383 119.5 L 383.5 13 Z " /><path fill="rgb(0,0,0)" stroke="rgb(0,0,0)" stroke-width="1" opacity="0.6352941176470588" d="M 413.5 13 L 414 119.5 L 413 119.5 L 413.5 13 Z " /><path fill="rgb(0,0,0)" stroke="rgb(0,0,0)" stroke-width="1" opacity="0.6352941176470588" d="M 443.5 13 L 444 168.5 L 443 168.5 L 443.5 13 Z " /><path fill="rgb(0,0,0)" stroke="rgb(0,0,0)" stroke-width="1" opacity="0.6352941176470588" d="M 116.5 16 L 112.5 21 L 116.5 16 Z " /><path fill="rgb(0,0,0)" stroke="rgb(0,0,0)" stroke-width="1" opacity="0.6352941176470588" d="M 200.5 16 L 204.5 21 L 200.5 16 Z " /><path fill="rgb(0,0,0)" stroke="rgb(0,0,0)" stroke-width="1" opacity="0.6352941176470588" d="M 209.5 25 L 213.5 30 L 209.5 25 Z " /><path fill="rgb(0,0,0)" stroke="rgb(0,0,0)" stroke-width="1" opacity="0.6352941176470588" d="M 106.5 26 L 102.5 31 L 106.5 26 Z " /><path fill="rgb(0,0,0)" stroke="rgb(0,0,0)" stroke-width="1" opacity="0.6352941176470588" d="M 100.5 33 L 99.5 35 L 100.5 33 Z " /><path fill="rgb(0,0,0)" stroke="rgb(0,0,0)" stroke-width="1" opacity="0.6352941176470588" d="M 216.5 33 L 217.5 35 L 216.5 33 Z " /><path fill="rgb(0,0,0)" stroke="rgb(0,0,0)" stroke-width="1" opacity="0.6352941176470588" d="M 97.5 37 L 96.5 39 L 97.5 37 Z " /><path fill="rgb(0,0,0)" stroke="rgb(0,0,0)" stroke-width="1" opacity="0.6352941176470588" d="M 219.5 37 L 220.5 39 L 219.5 37 Z " /><path fill="rgb(0,0,0)" stroke="rgb(0,0,0)" stroke-width="1" opacity="0.6352941176470588" d="M 225.5 46 L 226.5 48 L 225.5 46 Z " /><path fill="rgb(0,0,0)" stroke="rgb(0,0,0)" stroke-width="1" opacity="0.6352941176470588" d="M 88.5 51 L 87.5 53 L 88.5 51 Z " /><path fill="rgb(0,0,0)" stroke="rgb(0,0,0)" stroke-width="1" opacity="0.6352941176470588" d="M 228.5 51 L 229.5 53 L 228.5 51 Z " /><path fill="rgb(0,0,0)" stroke="rgb(0,0,0)" stroke-width="1" opacity="0.6352941176470588" d="M 70.5 98 L 71 100.5 L 70 100.5 L 70.5 98 Z " /><path fill="rgb(0,0,0)" stroke="rgb(0,0,0)" stroke-width="1" opacity="0.6352941176470588" d="M 69.5 104 L 70 107.5 L 69 107.5 L 69.5 104 Z " /><path fill="rgb(0,0,0)" stroke="rgb(0,0,0)" stroke-width="1" opacity="0.6352941176470588" d="M 247.5 105 L 248 108.5 L 247 108.5 L 247.5 105 Z " /><path fill="rgb(0,0,0)" stroke="rgb(0,0,0)" stroke-width="1" opacity="0.6352941176470588" d="M 68.5 114 L 69 125.5 L 68 125.5 L 68.5 114 Z " /><path fill="rgb(0,0,0)" stroke="rgb(0,0,0)" stroke-width="1" opacity="0.6352941176470588" d="M 248.5 114 L 249 123.5 L 248 123.5 L 248.5 114 Z " /><path fill="rgb(0,0,0)" stroke="rgb(0,0,0)" stroke-width="1" opacity="0.6352941176470588" d="M 247.5 130 L 248 134.5 L 247 134.5 L 247.5 130 Z " /><path fill="rgb(0,0,0)" stroke="rgb(0,0,0)" stroke-width="1" opacity="0.6352941176470588" d="M 69.5 131 L 70 134.5 L 69 134.5 L 69.5 131 Z " /><path fill="rgb(0,0,0)" stroke="rgb(0,0,0)" stroke-width="1" opacity="0.6352941176470588" d="M 70.5 137 L 71 139.5 L 70 139.5 L 70.5 137 Z " /><path fill="rgb(0,0,0)" stroke="rgb(0,0,0)" stroke-width="1" opacity="0.6352941176470588" d="M 78.5 161 L 79.5 163 L 78.5 161 Z " /><path fill="rgb(0,0,0)" stroke="rgb(0,0,0)" stroke-width="1" opacity="0.6352941176470588" d="M 235.5 166 L 234.5 168 L 235.5 166 Z " /><path fill="rgb(0,0,0)" stroke="rgb(0,0,0)" stroke-width="1" opacity="0.6352941176470588" d="M 233.5 169 L 232.5 171 L 233.5 169 Z " /><path fill="rgb(0,0,0)" stroke="rgb(0,0,0)" stroke-width="1" opacity="0.6352941176470588" d="M 85.5 172 L 86.5 174 L 85.5 172 Z " /><path fill="rgb(0,0,0)" stroke="rgb(0,0,0)" stroke-width="1" opacity="0.6352941176470588" d="M 231.5 172 L 230.5 174 L 231.5 172 Z " /><path fill="rgb(0,0,0)" stroke="rgb(0,0,0)" stroke-width="1" opacity="0.6352941176470588" d="M 88.5 176 L 91.5 180 L 88.5 176 Z " /><path fill="rgb(0,0,0)" stroke="rgb(0,0,0)" stroke-width="1" opacity="0.6352941176470588" d="M 228.5 176 L 225.5 180 L 228.5 176 Z " /><path fill="rgb(0,0,0)" stroke="rgb(0,0,0)" stroke-width="1" opacity="0.6352941176470588" d="M 99.5 187 L 101.5 190 L 99.5 187 Z " /><path fill="rgb(0,0,0)" stroke="rgb(0,0,0)" stroke-width="1" opacity="0.6352941176470588" d="M 217.5 187 L 215.5 190 L 217.5 187 Z " /><path fill="rgb(0,0,0)" stroke="rgb(0,0,0)" stroke-width="1" opacity="0.6352941176470588" d="M 299.5 187 L 300.5 189 L 299.5 187 Z " /><path fill="rgb(0,0,0)" stroke="rgb(0,0,0)" stroke-width="1" opacity="0.6352941176470588" d="M 301.5 190 L 302.5 192 L 301.5 190 Z " /><path fill="rgb(0,0,0)" stroke="rgb(0,0,0)" stroke-width="1" opacity="0.6352941176470588" d="M 212.5 191 L 211.5 193 L 212.5 191 Z " /><path fill="rgb(0,0,0)" stroke="rgb(0,0,0)" stroke-width="1" opacity="0.6352941176470588" d="M 433.5 193 L 427.5 200 L 433.5 193 Z " /><path fill="rgb(0,0,0)" stroke="rgb(0,0,0)" stroke-width="1" opacity="0.6352941176470588" d="M 108.5 194 L 109.5 196 L 108.5 194 Z " /><path fill="rgb(0,0,0)" stroke="rgb(0,0,0)" stroke-width="1" opacity="0.6352941176470588" d="M 208.5 194 L 207.5 196 L 208.5 194 Z " /><path fill="rgb(0,0,0)" stroke="rgb(0,0,0)" stroke-width="1" opacity="0.6352941176470588" d="M 304.5 194 L 309.5 200 L 304.5 194 Z " /><path fill="rgb(0,0,0)" stroke="rgb(0,0,0)" stroke-width="1" opacity="0.6352941176470588" d="M 113.5 197 L 114.5 199 L 113.5 197 Z " /><path fill="rgb(0,0,0)" stroke="rgb(0,0,0)" stroke-width="1" opacity="0.6352941176470588" d="M 203.5 197 L 202.5 199 L 203.5 197 Z " /><path fill="rgb(0,0,0)" stroke="rgb(0,0,0)" stroke-width="1" opacity="0.6352941176470588" d="M 312.5 201 L 313.5 203 L 312.5 201 Z " /><path fill="rgb(0,0,0)" stroke="rgb(0,0,0)" stroke-width="1" opacity="0.6352941176470588" d="M 424.5 201 L 423.5 203 L 424.5 201 Z " /><path fill="rgb(0,0,0)" stroke="rgb(0,0,0)" stroke-width="1" opacity="0.6352941176470588" d="M 127.5 204 L 129 205.5 L 129 484.5 L 128 484.5 L 128 205.5 L 127.5 204 Z " /><path fill="rgb(0,0,0)" stroke="rgb(0,0,0)" stroke-width="1" opacity="0.6352941176470588" d="M 189.5 204 L 189 205.5 L 188.5 485 L 188 205.5 L 189.5 204 Z " /><path fill="rgb(0,0,0)" stroke="rgb(0,0,0)" stroke-width="1" opacity="0.6352941176470588" d="M 419.5 204 L 418.5 206 L 417 205.5 L 419.5 204 Z " /><path fill="rgb(0,0,0)" stroke="rgb(0,0,0)" stroke-width="1" opacity="0.6352941176470588" d="M 331.5 209 L 334 209.5 L 331.5 210 L 331.5 209 Z " /><path fill="rgb(0,0,0)" stroke="rgb(0,0,0)" stroke-width="1" opacity="0.6352941176470588" d="M 403.5 209 L 406 209.5 L 403.5 210 L 403.5 209 Z " /><path fill="rgb(0,0,0)" stroke="rgb(0,0,0)" stroke-width="1" opacity="0.6352941176470588" d="M 338.5 210 L 339 484.5 L 338 484.5 L 338.5 210 Z " /><path fill="rgb(0,0,0)" stroke="rgb(0,0,0)" stroke-width="1" opacity="0.6352941176470588" d="M 398.5 210 L 399 484.5 L 398 484.5 L 398.5 210 Z " /><path fill="rgb(0,0,0)" stroke="rgb(0,0,0)" stroke-width="1" opacity="0.6352941176470588" d="M 133.5 498 L 134.5 500 L 133.5 498 Z " /><path fill="rgb(0,0,0)" stroke="rgb(0,0,0)" stroke-width="1" opacity="0.6352941176470588" d="M 183.5 498 L 182.5 500 L 183.5 498 Z " /><path fill="rgb(0,0,0)" stroke="rgb(0,0,0)" stroke-width="1" opacity="0.6352941176470588" d="M 343.5 498 L 344.5 500 L 343.5 498 Z " /><path fill="rgb(0,0,0)" stroke="rgb(0,0,0)" stroke-width="1" opacity="0.6352941176470588" d="M 393.5 498 L 392.5 500 L 393.5 498 Z " /><path fill="rgb(0,0,0)" stroke="rgb(0,0,0)" stroke-width="1" opacity="0.6352941176470588" d="M 136.5 502 L 137.5 504 L 136.5 502 Z " /><path fill="rgb(0,0,0)" stroke="rgb(0,0,0)" stroke-width="1" opacity="0.6352941176470588" d="M 180.5 502 L 179.5 504 L 180.5 502 Z " /><path fill="rgb(0,0,0)" stroke="rgb(0,0,0)" stroke-width="1" opacity="0.6352941176470588" d="M 390.5 502 L 388.5 505 L 390.5 502 Z " /><path fill="rgb(0,0,0)" stroke="rgb(0,0,0)" stroke-width="1" opacity="0.6352941176470588" d="M 175.5 506 L 174.5 508 L 175.5 506 Z " /><path fill="rgb(0,0,0)" stroke="rgb(0,0,0)" stroke-width="1" opacity="0.6352941176470588" d="M 385.5 506 L 384.5 508 L 385.5 506 Z " /><path fill="rgb(0,0,0)" stroke="rgb(0,0,0)" stroke-width="1" opacity="0.6352941176470588" d="M 152.5 511 L 155 511.5 L 152.5 512 L 152.5 511 Z " /><path fill="rgb(0,0,0)" stroke="rgb(0,0,0)" stroke-width="1" opacity="0.6352941176470588" d="M 162.5 511 L 165 511.5 L 162.5 512 L 162.5 511 Z " /><path fill="rgb(0,0,0)" stroke="rgb(0,0,0)" stroke-width="1" opacity="0.6352941176470588" d="M 362.5 511 L 365 511.5 L 362.5 512 L 362.5 511 Z " /><path fill="rgb(0,0,0)" stroke="rgb(0,0,0)" stroke-width="1" opacity="0.6352941176470588" d="M 372.5 511 L 375 511.5 L 372.5 512 L 372.5 511 Z " /><path fill="rgb(0,0,0)" stroke="rgb(0,0,0)" stroke-width="1" opacity="0" d="M 0 0 L 150 0.5 L 138.5 3 L 126.5 9 Q 112.2 17.7 102 30.5 Q 87.3 48.3 78 71.5 L 70 98.5 L 69 113.5 L 68 114.5 L 68 125.5 L 69 126.5 L 69 134.5 L 71 143.5 L 78 161.5 Q 87.2 178.4 101.5 190 L 114.5 199 L 128 205.5 L 128 484.5 L 130 492.5 L 137.5 504 Q 142.9 509.6 152 511.5 L 0 512 L 0 0 Z " /><path fill="rgb(0,0,0)" stroke="rgb(0,0,0)" stroke-width="1" opacity="0" d="M 167.5 0 L 304 0.5 L 295 7.5 L 293 13.5 L 293 168.5 L 295 178.5 L 299 187.5 L 309.5 200 L 323.5 208 L 338 210 L 338 484.5 L 340 492.5 L 347 504 L 354.5 509 L 362 511.5 L 165.5 512 L 165.5 511 Q 175.8 509.3 181 502.5 L 187 492.5 L 189 484.5 L 189 205.5 L 190.5 204 Q 214.9 195.4 229 176.5 Q 239.3 163.8 245 146.5 L 248 134.5 L 249 114.5 L 244 86.5 L 236 64.5 Q 222.9 35.6 200.5 16 L 180.5 4 L 171.5 1 L 167.5 1 L 167.5 0 Z " /><path fill="rgb(0,0,0)" stroke="rgb(0,0,0)" stroke-width="1" opacity="0" d="M 313.5 0 L 364 0.5 L 355 7.5 L 353 13.5 L 353 120 L 324.5 120 L 324 119.5 L 324 13.5 Q 322.6 5.4 316.5 2 Q 312.8 1.7 313.5 0 Z " /><path fill="rgb(0,0,0)" stroke="rgb(0,0,0)" stroke-width="1" opacity="0" d="M 373.5 0 L 424 0.5 L 415 7.5 L 413 13.5 L 413 120 L 384.5 120 L 384 119.5 L 384 13.5 Q 382.6 5.4 376.5 2 Q 372.7 1.7 373.5 0 Z " /><path fill="rgb(0,0,0)" stroke="rgb(0,0,0)" stroke-width="1" opacity="0" d="M 433.5 0 L 511.5 0 L 512 0.5 L 512 512 L 375 511.5 Q 385.4 509.4 391 502.5 L 397 492.5 L 399 484.5 L 399 210 Q 410.6 210.3 418.5 206 L 434 193.5 L 441 181.5 L 444 168.5 L 444 13.5 Q 442.6 5.4 436.5 2 Q 432.8 1.7 433.5 0 Z " /><path fill="rgb(0,0,0)" stroke="rgb(0,0,0)" stroke-width="1" opacity="1" d="M 154.5 0 L 169.5 1 L 179.5 4 Q 197.1 11.4 209 24.5 Q 228.9 45.6 240 75.5 L 247 101.5 L 248 129.5 L 244 148.5 L 236 165.5 Q 228.8 177.8 218.5 187 L 206.5 196 L 188 205.5 L 188 487.5 Q 185 499.5 176.5 506 Q 169.4 512.4 155.5 512 Q 141.8 509.8 135 500.5 L 129 487.5 L 129 205.5 L 127.5 204 Q 105.7 196.3 92 180.5 Q 79.6 167.4 73 148.5 L 69 130.5 L 69 108.5 L 74 84.5 L 81 65.5 Q 92.5 39.5 111.5 21 Q 122.2 10.2 137.5 4 L 154.5 0 Z " /><path fill="rgb(0,0,0)" stroke="rgb(0,0,0)" stroke-width="1" opacity="1" d="M 306.5 0 Q 315.9 0.1 320 5.5 L 323 11.5 L 323 120 L 353.5 120 L 354 119.5 L 354 11.5 L 359.5 3 L 366.5 0 L 370.5 0 Q 377.4 1.5 381 6.5 L 383 11.5 L 383 120 L 413.5 120 L 414 119.5 L 414 11.5 L 419.5 3 L 426.5 0 L 430.5 0 Q 437.5 1.5 441 6.5 L 443 11.5 L 443 172.5 Q 439 191.5 425.5 201 L 412.5 208 L 398 210 L 398 487.5 Q 395 499.5 386.5 506 Q 379.4 512.4 365.5 512 Q 351.8 509.8 345 500.5 L 339 487.5 L 339 210 Q 314.2 208.7 303 192.5 Q 296.4 184.6 294 172.5 L 294 11.5 L 299.5 3 L 306.5 0 Z " /></svg>