<svg width="512" height="512" version="1.1" xmlns="http://www.w3.org/2000/svg" desc="Created with imagetracer.js version 1.2.6" ><path fill="rgb(0,0,0)" stroke="rgb(0,0,0)" stroke-width="1" opacity="0.7607843137254902" d="M 162.5 0 L 169 0.5 L 162.5 1 L 162.5 0 Z " /><path fill="rgb(0,0,0)" stroke="rgb(0,0,0)" stroke-width="1" opacity="0.7607843137254902" d="M 174.5 0 L 182 0.5 L 174.5 1 L 174.5 0 Z " /><path fill="rgb(0,0,0)" stroke="rgb(0,0,0)" stroke-width="1" opacity="0.7607843137254902" d="M 156.5 1 L 159 1.5 L 156.5 2 L 156.5 1 Z " /><path fill="rgb(0,0,0)" stroke="rgb(0,0,0)" stroke-width="1" opacity="0.7607843137254902" d="M 185.5 1 L 188 1.5 L 185.5 2 L 185.5 1 Z " /><path fill="rgb(0,0,0)" stroke="rgb(0,0,0)" stroke-width="1" opacity="0.7607843137254902" d="M 129.5 11 L 128.5 13 L 129.5 11 Z " /><path fill="rgb(0,0,0)" stroke="rgb(0,0,0)" stroke-width="1" opacity="0.7607843137254902" d="M 214.5 11 L 215.5 13 L 214.5 11 Z " /><path fill="rgb(0,0,0)" stroke="rgb(0,0,0)" stroke-width="1" opacity="0.7607843137254902" d="M 123.5 15 L 122.5 17 L 123.5 15 Z " /><path fill="rgb(0,0,0)" stroke="rgb(0,0,0)" stroke-width="1" opacity="0.7607843137254902" d="M 220.5 15 L 221.5 17 L 220.5 15 Z " /><path fill="rgb(0,0,0)" stroke="rgb(0,0,0)" stroke-width="1" opacity="0.7607843137254902" d="M 120.5 17 L 118.5 20 L 120.5 17 Z " /><path fill="rgb(0,0,0)" stroke="rgb(0,0,0)" stroke-width="1" opacity="0.7607843137254902" d="M 223.5 17 L 225.5 20 L 223.5 17 Z " /><path fill="rgb(0,0,0)" stroke="rgb(0,0,0)" stroke-width="1" opacity="0.7607843137254902" d="M 114.5 22 L 109.5 28 L 114.5 22 Z " /><path fill="rgb(0,0,0)" stroke="rgb(0,0,0)" stroke-width="1" opacity="0.7607843137254902" d="M 230.5 23 L 233.5 27 L 230.5 23 Z " /><path fill="rgb(0,0,0)" stroke="rgb(0,0,0)" stroke-width="1" opacity="0.7607843137254902" d="M 260.5 26 L 264 26.5 L 260.5 27 L 260.5 26 Z " /><path fill="rgb(0,0,0)" stroke="rgb(0,0,0)" stroke-width="1" opacity="0.7607843137254902" d="M 284.5 26 L 287 26.5 L 284.5 27 L 284.5 26 Z " /><path fill="rgb(0,0,0)" stroke="rgb(0,0,0)" stroke-width="1" opacity="0.7607843137254902" d="M 254.5 27 L 257 27.5 L 254.5 28 L 254.5 27 Z " /><path fill="rgb(0,0,0)" stroke="rgb(0,0,0)" stroke-width="1" opacity="0.7607843137254902" d="M 291.5 27 L 294 27.5 L 291.5 28 L 291.5 27 Z " /><path fill="rgb(0,0,0)" stroke="rgb(0,0,0)" stroke-width="1" opacity="0.7607843137254902" d="M 236.5 30 L 238.5 33 L 236.5 30 Z " /><path fill="rgb(0,0,0)" stroke="rgb(0,0,0)" stroke-width="1" opacity="0.7607843137254902" d="M 106.5 31 L 104.5 34 L 106.5 31 Z " /><path fill="rgb(0,0,0)" stroke="rgb(0,0,0)" stroke-width="1" opacity="0.7607843137254902" d="M 323.5 39 L 324.5 41 L 323.5 39 Z " /><path fill="rgb(0,0,0)" stroke="rgb(0,0,0)" stroke-width="1" opacity="0.7607843137254902" d="M 329.5 43 L 330.5 45 L 329.5 43 Z " /><path fill="rgb(0,0,0)" stroke="rgb(0,0,0)" stroke-width="1" opacity="0.7607843137254902" d="M 333.5 46 L 336.5 50 L 333.5 46 Z " /><path fill="rgb(0,0,0)" stroke="rgb(0,0,0)" stroke-width="1" opacity="0.7607843137254902" d="M 345.5 58 L 348.5 62 L 345.5 58 Z " /><path fill="rgb(0,0,0)" stroke="rgb(0,0,0)" stroke-width="1" opacity="0.7607843137254902" d="M 350.5 64 L 351.5 66 L 350.5 64 Z " /><path fill="rgb(0,0,0)" stroke="rgb(0,0,0)" stroke-width="1" opacity="0.7607843137254902" d="M 354.5 70 L 355.5 72 L 354.5 70 Z " /><path fill="rgb(0,0,0)" stroke="rgb(0,0,0)" stroke-width="1" opacity="0.7607843137254902" d="M 69.5 75 L 68.5 77 L 69.5 75 Z " /><path fill="rgb(0,0,0)" stroke="rgb(0,0,0)" stroke-width="1" opacity="0.7607843137254902" d="M 357.5 75 L 358.5 77 L 357.5 75 Z " /><path fill="rgb(0,0,0)" stroke="rgb(0,0,0)" stroke-width="1" opacity="0.7607843137254902" d="M 66.5 77 L 65.5 79 L 66.5 77 Z " /><path fill="rgb(0,0,0)" stroke="rgb(0,0,0)" stroke-width="1" opacity="0.7607843137254902" d="M 62.5 80 L 60.5 83 L 62.5 80 Z " /><path fill="rgb(0,0,0)" stroke="rgb(0,0,0)" stroke-width="1" opacity="0.7607843137254902" d="M 57.5 84 L 52.5 90 L 57.5 84 Z " /><path fill="rgb(0,0,0)" stroke="rgb(0,0,0)" stroke-width="1" opacity="0.7607843137254902" d="M 48.5 94 L 47.5 96 L 48.5 94 Z " /><path fill="rgb(0,0,0)" stroke="rgb(0,0,0)" stroke-width="1" opacity="0.7607843137254902" d="M 46.5 97 L 45.5 99 L 46.5 97 Z " /><path fill="rgb(0,0,0)" stroke="rgb(0,0,0)" stroke-width="1" opacity="0.7607843137254902" d="M 44.5 100 L 43.5 102 L 44.5 100 Z " /><path fill="rgb(0,0,0)" stroke="rgb(0,0,0)" stroke-width="1" opacity="0.7607843137254902" d="M 368.5 107 L 369 109.5 L 368 109.5 L 368.5 107 Z " /><path fill="rgb(0,0,0)" stroke="rgb(0,0,0)" stroke-width="1" opacity="0.7607843137254902" d="M 369.5 116 L 370 155.5 L 369 155.5 L 369.5 116 Z " /><path fill="rgb(0,0,0)" stroke="rgb(0,0,0)" stroke-width="1" opacity="0.7607843137254902" d="M 33.5 127 L 34 130.5 L 33 130.5 L 33.5 127 Z " /><path fill="rgb(0,0,0)" stroke="rgb(0,0,0)" stroke-width="1" opacity="0.7607843137254902" d="M 32.5 135 L 33 145.5 L 32 145.5 L 32.5 135 Z " /><path fill="rgb(0,0,0)" stroke="rgb(0,0,0)" stroke-width="1" opacity="0.7607843137254902" d="M 33.5 151 L 34 153.5 L 33 153.5 L 33.5 151 Z " /><path fill="rgb(0,0,0)" stroke="rgb(0,0,0)" stroke-width="1" opacity="0.7607843137254902" d="M 260.5 177 L 259.5 179 L 260.5 177 Z " /><path fill="rgb(0,0,0)" stroke="rgb(0,0,0)" stroke-width="1" opacity="0.7607843137254902" d="M 257.5 181 L 256.5 183 L 257.5 181 Z " /><path fill="rgb(0,0,0)" stroke="rgb(0,0,0)" stroke-width="1" opacity="0.7607843137254902" d="M 254.5 185 L 245.5 195 L 254.5 185 Z " /><path fill="rgb(0,0,0)" stroke="rgb(0,0,0)" stroke-width="1" opacity="0.7607843137254902" d="M 47.5 186 L 48.5 188 L 47.5 186 Z " /><path fill="rgb(0,0,0)" stroke="rgb(0,0,0)" stroke-width="1" opacity="0.7607843137254902" d="M 318.5 186 L 319 445.5 L 317.5 447 L 288.5 447 L 288.5 446 L 317.5 446 L 318 445.5 L 318.5 186 Z " /><path fill="rgb(0,0,0)" stroke="rgb(0,0,0)" stroke-width="1" opacity="0.7607843137254902" d="M 369.5 186 L 370 219.5 L 369 219.5 L 369.5 186 Z " /><path fill="rgb(0,0,0)" stroke="rgb(0,0,0)" stroke-width="1" opacity="0.7607843137254902" d="M 50.5 190 L 59.5 200 L 50.5 190 Z " /><path fill="rgb(0,0,0)" stroke="rgb(0,0,0)" stroke-width="1" opacity="0.7607843137254902" d="M 285.5 194 L 284.5 196 L 285.5 194 Z " /><path fill="rgb(0,0,0)" stroke="rgb(0,0,0)" stroke-width="1" opacity="0.7607843137254902" d="M 242.5 196 L 241.5 198 L 242.5 196 Z " /><path fill="rgb(0,0,0)" stroke="rgb(0,0,0)" stroke-width="1" opacity="0.7607843137254902" d="M 283.5 197 L 282.5 199 L 283.5 197 Z " /><path fill="rgb(0,0,0)" stroke="rgb(0,0,0)" stroke-width="1" opacity="0.7607843137254902" d="M 156.5 200 L 155.5 202 L 156.5 200 Z " /><path fill="rgb(0,0,0)" stroke="rgb(0,0,0)" stroke-width="1" opacity="0.7607843137254902" d="M 159.5 200 L 160.5 202 L 159.5 200 Z " /><path fill="rgb(0,0,0)" stroke="rgb(0,0,0)" stroke-width="1" opacity="0.7607843137254902" d="M 62.5 201 L 63.5 203 L 62.5 201 Z " /><path fill="rgb(0,0,0)" stroke="rgb(0,0,0)" stroke-width="1" opacity="0.7607843137254902" d="M 234.5 201 L 233.5 203 L 234.5 201 Z " /><path fill="rgb(0,0,0)" stroke="rgb(0,0,0)" stroke-width="1" opacity="0.7607843137254902" d="M 280.5 201 L 279.5 203 L 280.5 201 Z " /><path fill="rgb(0,0,0)" stroke="rgb(0,0,0)" stroke-width="1" opacity="0.7607843137254902" d="M 152.5 203 L 151.5 205 L 152.5 203 Z " /><path fill="rgb(0,0,0)" stroke="rgb(0,0,0)" stroke-width="1" opacity="0.7607843137254902" d="M 149.5 205 L 148.5 207 L 149.5 205 Z " /><path fill="rgb(0,0,0)" stroke="rgb(0,0,0)" stroke-width="1" opacity="0.7607843137254902" d="M 275.5 207 L 266.5 217 L 275.5 207 Z " /><path fill="rgb(0,0,0)" stroke="rgb(0,0,0)" stroke-width="1" opacity="0.7607843137254902" d="M 213.5 209 L 216 209.5 L 213.5 210 L 213.5 209 Z " /><path fill="rgb(0,0,0)" stroke="rgb(0,0,0)" stroke-width="1" opacity="0.7607843137254902" d="M 184.5 210 L 188 210.5 L 184.5 211 L 184.5 210 Z " /><path fill="rgb(0,0,0)" stroke="rgb(0,0,0)" stroke-width="1" opacity="0.7607843137254902" d="M 191.5 211 L 202 211.5 L 191.5 212 L 191.5 211 Z " /><path fill="rgb(0,0,0)" stroke="rgb(0,0,0)" stroke-width="1" opacity="0.7607843137254902" d="M 96.5 216 L 99 216.5 L 96.5 217 L 96.5 216 Z " /><path fill="rgb(0,0,0)" stroke="rgb(0,0,0)" stroke-width="1" opacity="0.7607843137254902" d="M 119.5 216 L 123 216.5 L 119.5 217 L 119.5 216 Z " /><path fill="rgb(0,0,0)" stroke="rgb(0,0,0)" stroke-width="1" opacity="0.7607843137254902" d="M 104.5 217 L 114 217.5 L 104.5 218 L 104.5 217 Z " /><path fill="rgb(0,0,0)" stroke="rgb(0,0,0)" stroke-width="1" opacity="0.7607843137254902" d="M 263.5 218 L 262.5 220 L 263.5 218 Z " /><path fill="rgb(0,0,0)" stroke="rgb(0,0,0)" stroke-width="1" opacity="0.7607843137254902" d="M 417.5 220 L 423 220.5 L 417.5 221 L 417.5 220 Z " /><path fill="rgb(0,0,0)" stroke="rgb(0,0,0)" stroke-width="1" opacity="0.7607843137254902" d="M 259.5 221 L 258.5 223 L 259.5 221 Z " /><path fill="rgb(0,0,0)" stroke="rgb(0,0,0)" stroke-width="1" opacity="0.7607843137254902" d="M 444.5 227 L 445.5 229 L 444.5 227 Z " /><path fill="rgb(0,0,0)" stroke="rgb(0,0,0)" stroke-width="1" opacity="0.7607843137254902" d="M 248.5 228 L 247.5 230 L 248.5 228 Z " /><path fill="rgb(0,0,0)" stroke="rgb(0,0,0)" stroke-width="1" opacity="0.7607843137254902" d="M 449.5 230 L 450.5 232 L 449.5 230 Z " /><path fill="rgb(0,0,0)" stroke="rgb(0,0,0)" stroke-width="1" opacity="0.7607843137254902" d="M 452.5 232 L 454.5 235 L 452.5 232 Z " /><path fill="rgb(0,0,0)" stroke="rgb(0,0,0)" stroke-width="1" opacity="0.7607843137254902" d="M 156.5 236 L 156 237.5 L 156 445.5 L 154.5 447 L 125 446.5 L 155 446 L 155 237.5 L 156.5 236 Z " /><path fill="rgb(0,0,0)" stroke="rgb(0,0,0)" stroke-width="1" opacity="0.7607843137254902" d="M 458.5 237 L 462.5 242 L 458.5 237 Z " /><path fill="rgb(0,0,0)" stroke="rgb(0,0,0)" stroke-width="1" opacity="0.7607843137254902" d="M 175.5 239 L 178 239.5 L 175.5 240 L 175.5 239 Z " /><path fill="rgb(0,0,0)" stroke="rgb(0,0,0)" stroke-width="1" opacity="0.7607843137254902" d="M 180.5 240 L 184 240.5 L 180.5 241 L 180.5 240 Z " /><path fill="rgb(0,0,0)" stroke="rgb(0,0,0)" stroke-width="1" opacity="0.7607843137254902" d="M 187.5 241 L 197 241.5 L 187.5 242 L 187.5 241 Z " /><path fill="rgb(0,0,0)" stroke="rgb(0,0,0)" stroke-width="1" opacity="0.7607843137254902" d="M 200.5 241 Q 206.8 240.3 207 241.5 L 207 445.5 L 207.5 446 L 236.5 446 L 236.5 447 L 207.5 447 L 206 445.5 L 206 242.5 Q 205.9 241.4 200.5 242 L 200.5 241 Z " /><path fill="rgb(0,0,0)" stroke="rgb(0,0,0)" stroke-width="1" opacity="0.7607843137254902" d="M 86.5 245 L 89 245.5 L 86.5 246 L 86.5 245 Z " /><path fill="rgb(0,0,0)" stroke="rgb(0,0,0)" stroke-width="1" opacity="0.7607843137254902" d="M 465.5 245 L 466.5 247 L 465.5 245 Z " /><path fill="rgb(0,0,0)" stroke="rgb(0,0,0)" stroke-width="1" opacity="0.7607843137254902" d="M 91.5 246 L 95 246.5 L 91.5 247 L 91.5 246 Z " /><path fill="rgb(0,0,0)" stroke="rgb(0,0,0)" stroke-width="1" opacity="0.7607843137254902" d="M 99.5 247 L 119 247.5 L 99.5 248 L 99.5 247 Z " /><path fill="rgb(0,0,0)" stroke="rgb(0,0,0)" stroke-width="1" opacity="0.7607843137254902" d="M 469.5 251 L 470.5 253 L 469.5 251 Z " /><path fill="rgb(0,0,0)" stroke="rgb(0,0,0)" stroke-width="1" opacity="0.7607843137254902" d="M 478.5 273 L 479 275.5 L 478 275.5 L 478.5 273 Z " /><path fill="rgb(0,0,0)" stroke="rgb(0,0,0)" stroke-width="1" opacity="0.7607843137254902" d="M 369.5 279 L 370 359 L 414 359.5 L 370.5 360 L 369 358.5 L 369.5 279 Z " /><path fill="rgb(0,0,0)" stroke="rgb(0,0,0)" stroke-width="1" opacity="0.7607843137254902" d="M 479.5 281 L 480 356.5 L 479 356.5 L 479.5 281 Z " /><path fill="rgb(0,0,0)" stroke="rgb(0,0,0)" stroke-width="1" opacity="0.7607843137254902" d="M 420.5 283 L 421 285.5 L 420 285.5 L 420.5 283 Z " /><path fill="rgb(0,0,0)" stroke="rgb(0,0,0)" stroke-width="1" opacity="0.7607843137254902" d="M 420.5 352 L 421 354.5 L 420 354.5 L 420.5 352 Z " /><path fill="rgb(0,0,0)" stroke="rgb(0,0,0)" stroke-width="1" opacity="0.7607843137254902" d="M 478.5 362 L 479 364.5 L 478 364.5 L 478.5 362 Z " /><path fill="rgb(0,0,0)" stroke="rgb(0,0,0)" stroke-width="1" opacity="0.7607843137254902" d="M 466.5 391 L 465.5 393 L 466.5 391 Z " /><path fill="rgb(0,0,0)" stroke="rgb(0,0,0)" stroke-width="1" opacity="0.7607843137254902" d="M 463.5 395 L 457.5 402 L 463.5 395 Z " /><path fill="rgb(0,0,0)" stroke="rgb(0,0,0)" stroke-width="1" opacity="0.7607843137254902" d="M 453.5 404 L 452.5 406 L 453.5 404 Z " /><path fill="rgb(0,0,0)" stroke="rgb(0,0,0)" stroke-width="1" opacity="0.7607843137254902" d="M 419.5 417 L 423 417.5 L 419.5 418 L 419.5 417 Z " /><path fill="rgb(0,0,0)" stroke="rgb(0,0,0)" stroke-width="1" opacity="0.7607843137254902" d="M 369.5 418 L 370 511.5 L 369 511.5 L 369.5 418 Z " /><path fill="rgb(0,0,0)" stroke="rgb(0,0,0)" stroke-width="1" opacity="0" d="M 0 0 L 162 0.5 Q 127.4 5.9 109 27.5 L 98 42.5 L 87.5 68 L 84.5 68 L 69.5 75 L 52 89.5 Q 42.6 99.6 37 113.5 L 33 127.5 L 32 145.5 L 35 162.5 L 43 180.5 Q 49.7 191.8 59.5 200 L 81.5 213 L 96.5 217 L 113.5 218 L 114.5 217 L 122.5 217 L 136.5 213 L 158.5 200 Q 173.8 212.2 201.5 212 L 202.5 211 L 215.5 210 L 227.5 206 Q 244.1 198.6 255 185.5 Q 265.6 173.5 270 156 L 370 156 L 370 116.5 L 366 93.5 L 360 78.5 L 352 65.5 L 342 53 L 323.5 39 L 309.5 32 L 293.5 27 L 275.5 26 L 273.5 25 L 272.5 26 L 254.5 27 L 238.5 32 L 230.5 23 Q 213 5 182 0.5 L 512 0 L 512 511.5 L 511.5 512 L 370 512 L 370 418 L 422.5 418 Q 449.7 413.2 464 395.5 Q 474.8 383.3 479 364.5 Q 477.2 358.3 480 356.5 L 480 281.5 Q 477.2 279.8 479 273.5 L 475 260.5 Q 468.9 246.6 458.5 237 Q 445.2 223.8 422.5 220 L 370 220 L 370 186 L 318 186 L 318 445.5 L 317.5 446 L 288 446 L 287.5 191 Q 278.4 206.9 264.5 218 Q 252.5 228 237 234.5 L 237 445.5 L 236.5 446 L 207 446 L 207 241.5 Q 206.8 240.3 200.5 241 L 197.5 242 L 196.5 241 L 178.5 240 L 162.5 235 L 158.5 235 L 155 237.5 L 155 445.5 L 154.5 446 L 125 446 L 125 246.5 L 123.5 246 L 122.5 247 L 95.5 247 L 74 242 L 74 511.5 L 73.5 512 L 0 512 L 0 0 Z " /><path fill="rgb(0,0,0)" stroke="rgb(0,0,0)" stroke-width="1" opacity="0" d="M 370 279 L 415.5 279 L 420 282.5 L 421 286.5 L 421 351.5 L 420 355.5 L 417.5 358 L 415.5 359 L 370 359 L 370 279 Z " /><path fill="rgb(0,0,0)" stroke="rgb(0,0,0)" stroke-width="1" opacity="1" d="M 169.5 0 L 190.5 2 L 205.5 7 Q 223.9 15.1 236 29.5 L 238.5 33 L 257.5 27 L 283.5 26 L 302.5 30 L 322.5 39 Q 335.4 46.6 345 57.5 Q 361.8 75.2 368 103.5 Q 366.5 109 369 110.5 L 369 156 L 269.5 156 L 269 158.5 Q 261.3 182.3 243.5 196 Q 232.5 204.5 217.5 209 Q 211.4 208.4 208.5 211 L 188.5 211 L 169.5 206 L 159.5 200 L 156.5 200 Q 145.5 210.5 128.5 215 L 118.5 217 L 99.5 217 Q 65.9 211.1 49 188.5 Q 40.7 178.3 36 164.5 L 33 150.5 L 33 131.5 Q 38.7 99.7 59.5 83 Q 71.3 72.1 89 68 Q 95.8 37.1 117.5 20 Q 128.6 10.6 143.5 5 L 153.5 2 L 168.5 1 L 169.5 0 Z " /><path fill="rgb(0,0,0)" stroke="rgb(0,0,0)" stroke-width="1" opacity="1" d="M 319 186 L 369 186 L 369 220 L 416.5 220 L 433.5 223 L 443.5 227 Q 456.2 233.8 465 244.5 Q 475.7 256.8 479 276.5 L 479 361.5 Q 473.6 389.6 454.5 404 Q 443.4 413.4 426.5 417 Q 420.3 415.2 418.5 418 L 369 418 L 369 511.5 L 368.5 512 L 74 512 L 74.5 242 L 91.5 247 L 118.5 248 L 125 247 L 125 446.5 L 125.5 447 L 154.5 447 L 156 445.5 L 156 237.5 L 157.5 236 L 161.5 235 L 180.5 241 L 206 242 L 206 445.5 L 207.5 447 L 236.5 447 L 237 446.5 L 237 234.5 L 238.5 234 Q 260.9 224.4 276 207.5 L 287.5 191 L 288 447 L 317.5 447 L 319 445.5 L 319 186 Z M 369 279 L 369 359 L 371 360 L 414 360 L 419 358 L 421 355 L 421 284 L 419 280 L 417 279 L 369 279 Z " /></svg>