<svg width="512" height="512" version="1.1" xmlns="http://www.w3.org/2000/svg" desc="Created with imagetracer.js version 1.2.6" ><path fill="rgb(0,0,0)" stroke="rgb(0,0,0)" stroke-width="1" opacity="0" d="M 0 0 L 512 0 L 512 512 L 0 512 L 0 0 Z M 152 43 Q 139 46 132 53 Q 120 63 117 81 L 118 96 L 125 111 Q 135 124 154 128 L 172 127 L 186 120 L 197 108 L 202 96 Q 201 91 203 90 L 202 76 L 193 58 Q 186 50 176 45 Q 166 41 152 43 Z M 344 43 Q 331 46 324 53 Q 312 63 309 81 L 310 96 L 317 111 Q 327 124 346 128 L 364 127 L 378 120 L 389 108 L 394 96 Q 393 91 395 90 L 394 76 L 385 58 Q 378 50 368 45 Q 358 41 344 43 Z M 124 149 L 110 153 L 101 159 L 90 172 L 85 188 L 85 309 L 86 309 L 117 309 L 117 310 L 117 469 L 203 469 L 203 310 L 204 309 L 235 309 L 235 188 L 233 179 L 225 165 L 213 154 L 197 149 L 124 149 Z M 347 149 L 335 152 L 326 157 Q 315 165 310 178 L 256 340 L 257 341 L 320 341 L 320 469 L 384 469 L 384 341 L 448 341 L 394 178 L 388 167 Q 381 157 370 152 L 358 149 L 347 149 Z " /><path fill="rgb(0,0,0)" stroke="rgb(0,0,0)" stroke-width="1" opacity="0.7411764705882353" d="M 151.5 43 L 154 43.5 L 151.5 44 L 151.5 43 Z " /><path fill="rgb(0,0,0)" stroke="rgb(0,0,0)" stroke-width="1" opacity="0.7411764705882353" d="M 166.5 43 L 169 43.5 L 166.5 44 L 166.5 43 Z " /><path fill="rgb(0,0,0)" stroke="rgb(0,0,0)" stroke-width="1" opacity="0.7411764705882353" d="M 343.5 43 L 346 43.5 L 343.5 44 L 343.5 43 Z " /><path fill="rgb(0,0,0)" stroke="rgb(0,0,0)" stroke-width="1" opacity="0.7411764705882353" d="M 358.5 43 L 361 43.5 L 358.5 44 L 358.5 43 Z " /><path fill="rgb(0,0,0)" stroke="rgb(0,0,0)" stroke-width="1" opacity="0.7411764705882353" d="M 135.5 50 L 134.5 52 L 135.5 50 Z " /><path fill="rgb(0,0,0)" stroke="rgb(0,0,0)" stroke-width="1" opacity="0.7411764705882353" d="M 184.5 50 L 185.5 52 L 184.5 50 Z " /><path fill="rgb(0,0,0)" stroke="rgb(0,0,0)" stroke-width="1" opacity="0.7411764705882353" d="M 327.5 50 L 326.5 52 L 327.5 50 Z " /><path fill="rgb(0,0,0)" stroke="rgb(0,0,0)" stroke-width="1" opacity="0.7411764705882353" d="M 376.5 50 L 377.5 52 L 376.5 50 Z " /><path fill="rgb(0,0,0)" stroke="rgb(0,0,0)" stroke-width="1" opacity="0.7411764705882353" d="M 131.5 53 L 128.5 57 L 131.5 53 Z " /><path fill="rgb(0,0,0)" stroke="rgb(0,0,0)" stroke-width="1" opacity="0.7411764705882353" d="M 188.5 53 L 192.5 58 L 188.5 53 Z " /><path fill="rgb(0,0,0)" stroke="rgb(0,0,0)" stroke-width="1" opacity="0.7411764705882353" d="M 323.5 53 L 320.5 57 L 323.5 53 Z " /><path fill="rgb(0,0,0)" stroke="rgb(0,0,0)" stroke-width="1" opacity="0.7411764705882353" d="M 380.5 53 L 384.5 58 L 380.5 53 Z " /><path fill="rgb(0,0,0)" stroke="rgb(0,0,0)" stroke-width="1" opacity="0.7411764705882353" d="M 125.5 60 L 124.5 62 L 125.5 60 Z " /><path fill="rgb(0,0,0)" stroke="rgb(0,0,0)" stroke-width="1" opacity="0.7411764705882353" d="M 194.5 60 L 195.5 62 L 194.5 60 Z " /><path fill="rgb(0,0,0)" stroke="rgb(0,0,0)" stroke-width="1" opacity="0.7411764705882353" d="M 317.5 60 L 316.5 62 L 317.5 60 Z " /><path fill="rgb(0,0,0)" stroke="rgb(0,0,0)" stroke-width="1" opacity="0.7411764705882353" d="M 386.5 60 L 387.5 62 L 386.5 60 Z " /><path fill="rgb(0,0,0)" stroke="rgb(0,0,0)" stroke-width="1" opacity="0.7411764705882353" d="M 117.5 80 L 118 89.5 L 117 89.5 L 117.5 80 Z " /><path fill="rgb(0,0,0)" stroke="rgb(0,0,0)" stroke-width="1" opacity="0.7411764705882353" d="M 202.5 80 L 203 89.5 L 202 89.5 L 202.5 80 Z " /><path fill="rgb(0,0,0)" stroke="rgb(0,0,0)" stroke-width="1" opacity="0.7411764705882353" d="M 309.5 80 L 310 89.5 L 309 89.5 L 309.5 80 Z " /><path fill="rgb(0,0,0)" stroke="rgb(0,0,0)" stroke-width="1" opacity="0.7411764705882353" d="M 394.5 80 L 395 89.5 L 394 89.5 L 394.5 80 Z " /><path fill="rgb(0,0,0)" stroke="rgb(0,0,0)" stroke-width="1" opacity="0.7411764705882353" d="M 123.5 107 L 124.5 109 L 123.5 107 Z " /><path fill="rgb(0,0,0)" stroke="rgb(0,0,0)" stroke-width="1" opacity="0.7411764705882353" d="M 196.5 107 L 195.5 109 L 196.5 107 Z " /><path fill="rgb(0,0,0)" stroke="rgb(0,0,0)" stroke-width="1" opacity="0.7411764705882353" d="M 315.5 107 L 316.5 109 L 315.5 107 Z " /><path fill="rgb(0,0,0)" stroke="rgb(0,0,0)" stroke-width="1" opacity="0.7411764705882353" d="M 388.5 107 L 387.5 109 L 388.5 107 Z " /><path fill="rgb(0,0,0)" stroke="rgb(0,0,0)" stroke-width="1" opacity="0.7411764705882353" d="M 125.5 110 L 126.5 112 L 125.5 110 Z " /><path fill="rgb(0,0,0)" stroke="rgb(0,0,0)" stroke-width="1" opacity="0.7411764705882353" d="M 194.5 110 L 192.5 113 L 194.5 110 Z " /><path fill="rgb(0,0,0)" stroke="rgb(0,0,0)" stroke-width="1" opacity="0.7411764705882353" d="M 317.5 110 L 318.5 112 L 317.5 110 Z " /><path fill="rgb(0,0,0)" stroke="rgb(0,0,0)" stroke-width="1" opacity="0.7411764705882353" d="M 386.5 110 L 384.5 113 L 386.5 110 Z " /><path fill="rgb(0,0,0)" stroke="rgb(0,0,0)" stroke-width="1" opacity="0.7411764705882353" d="M 133.5 118 L 134.5 120 L 133.5 118 Z " /><path fill="rgb(0,0,0)" stroke="rgb(0,0,0)" stroke-width="1" opacity="0.7411764705882353" d="M 186.5 118 L 185.5 120 L 186.5 118 Z " /><path fill="rgb(0,0,0)" stroke="rgb(0,0,0)" stroke-width="1" opacity="0.7411764705882353" d="M 325.5 118 L 326.5 120 L 325.5 118 Z " /><path fill="rgb(0,0,0)" stroke="rgb(0,0,0)" stroke-width="1" opacity="0.7411764705882353" d="M 378.5 118 L 377.5 120 L 378.5 118 Z " /><path fill="rgb(0,0,0)" stroke="rgb(0,0,0)" stroke-width="1" opacity="0.7411764705882353" d="M 153.5 127 L 158 127.5 L 153.5 128 L 153.5 127 Z " /><path fill="rgb(0,0,0)" stroke="rgb(0,0,0)" stroke-width="1" opacity="0.7411764705882353" d="M 162.5 127 L 167 127.5 L 162.5 128 L 162.5 127 Z " /><path fill="rgb(0,0,0)" stroke="rgb(0,0,0)" stroke-width="1" opacity="0.7411764705882353" d="M 345.5 127 L 350 127.5 L 345.5 128 L 345.5 127 Z " /><path fill="rgb(0,0,0)" stroke="rgb(0,0,0)" stroke-width="1" opacity="0.7411764705882353" d="M 354.5 127 L 359 127.5 L 354.5 128 L 354.5 127 Z " /><path fill="rgb(0,0,0)" stroke="rgb(0,0,0)" stroke-width="1" opacity="0.7411764705882353" d="M 123.5 149 L 197 149.5 L 123.5 150 L 123.5 149 Z " /><path fill="rgb(0,0,0)" stroke="rgb(0,0,0)" stroke-width="1" opacity="0.7411764705882353" d="M 346.5 149 L 358 149.5 L 346.5 150 L 346.5 149 Z " /><path fill="rgb(0,0,0)" stroke="rgb(0,0,0)" stroke-width="1" opacity="0.7411764705882353" d="M 340.5 150 L 343 150.5 L 340.5 151 L 340.5 150 Z " /><path fill="rgb(0,0,0)" stroke="rgb(0,0,0)" stroke-width="1" opacity="0.7411764705882353" d="M 361.5 150 L 364 150.5 L 361.5 151 L 361.5 150 Z " /><path fill="rgb(0,0,0)" stroke="rgb(0,0,0)" stroke-width="1" opacity="0.7411764705882353" d="M 107.5 154 L 106.5 156 L 107.5 154 Z " /><path fill="rgb(0,0,0)" stroke="rgb(0,0,0)" stroke-width="1" opacity="0.7411764705882353" d="M 211.5 154 L 214 155.5 L 212.5 155 L 211.5 154 Z " /><path fill="rgb(0,0,0)" stroke="rgb(0,0,0)" stroke-width="1" opacity="0.7411764705882353" d="M 328.5 155 L 327.5 157 L 328.5 155 Z " /><path fill="rgb(0,0,0)" stroke="rgb(0,0,0)" stroke-width="1" opacity="0.7411764705882353" d="M 375.5 155 L 376.5 157 L 375.5 155 Z " /><path fill="rgb(0,0,0)" stroke="rgb(0,0,0)" stroke-width="1" opacity="0.7411764705882353" d="M 104.5 156 L 103.5 158 L 104.5 156 Z " /><path fill="rgb(0,0,0)" stroke="rgb(0,0,0)" stroke-width="1" opacity="0.7411764705882353" d="M 215.5 156 L 216.5 158 L 215.5 156 Z " /><path fill="rgb(0,0,0)" stroke="rgb(0,0,0)" stroke-width="1" opacity="0.7411764705882353" d="M 325.5 157 L 323.5 160 L 325.5 157 Z " /><path fill="rgb(0,0,0)" stroke="rgb(0,0,0)" stroke-width="1" opacity="0.7411764705882353" d="M 379.5 158 L 381.5 161 L 379.5 158 Z " /><path fill="rgb(0,0,0)" stroke="rgb(0,0,0)" stroke-width="1" opacity="0.7411764705882353" d="M 100.5 159 L 95.5 165 L 100.5 159 Z " /><path fill="rgb(0,0,0)" stroke="rgb(0,0,0)" stroke-width="1" opacity="0.7411764705882353" d="M 219.5 159 L 224.5 165 L 219.5 159 Z " /><path fill="rgb(0,0,0)" stroke="rgb(0,0,0)" stroke-width="1" opacity="0.7411764705882353" d="M 384.5 163 L 387.5 167 L 384.5 163 Z " /><path fill="rgb(0,0,0)" stroke="rgb(0,0,0)" stroke-width="1" opacity="0.7411764705882353" d="M 317.5 165 L 316.5 167 L 317.5 165 Z " /><path fill="rgb(0,0,0)" stroke="rgb(0,0,0)" stroke-width="1" opacity="0.7411764705882353" d="M 93.5 167 L 92.5 169 L 93.5 167 Z " /><path fill="rgb(0,0,0)" stroke="rgb(0,0,0)" stroke-width="1" opacity="0.7411764705882353" d="M 226.5 167 L 227.5 169 L 226.5 167 Z " /><path fill="rgb(0,0,0)" stroke="rgb(0,0,0)" stroke-width="1" opacity="0.7411764705882353" d="M 388.5 168 L 389.5 170 L 388.5 168 Z " /><path fill="rgb(0,0,0)" stroke="rgb(0,0,0)" stroke-width="1" opacity="0.7411764705882353" d="M 91.5 170 L 90.5 172 L 91.5 170 Z " /><path fill="rgb(0,0,0)" stroke="rgb(0,0,0)" stroke-width="1" opacity="0.7411764705882353" d="M 85.5 187 L 86 308.5 L 85 308.5 L 85.5 187 Z " /><path fill="rgb(0,0,0)" stroke="rgb(0,0,0)" stroke-width="1" opacity="0.7411764705882353" d="M 234.5 187 L 235 308.5 L 234 308.5 L 234.5 187 Z " /><path fill="rgb(0,0,0)" stroke="rgb(0,0,0)" stroke-width="1" opacity="0.7411764705882353" d="M 117.5 309 L 118 468.5 L 117 468.5 L 117.5 309 Z " /><path fill="rgb(0,0,0)" stroke="rgb(0,0,0)" stroke-width="1" opacity="0.7411764705882353" d="M 202.5 309 L 203 468.5 L 202 468.5 L 202.5 309 Z " /><path fill="rgb(0,0,0)" stroke="rgb(0,0,0)" stroke-width="1" opacity="1" d="M 154.5 43 L 165.5 43 L 176.5 46 Q 187.2 50.8 194 59.5 Q 199.7 66.8 202 77.5 L 202 93.5 Q 198.2 109.2 187.5 118 Q 177.3 127.3 158.5 128 L 144.5 125 Q 133.7 120.8 127 112.5 L 119 97.5 Q 116.4 89.6 118 77.5 Q 121.9 60.9 133.5 52 Q 141.6 45.1 154.5 43 Z " /><path fill="rgb(0,0,0)" stroke="rgb(0,0,0)" stroke-width="1" opacity="1" d="M 346.5 43 L 357.5 43 L 368.5 46 Q 379.2 50.8 386 59.5 Q 391.7 66.8 394 77.5 L 394 93.5 Q 390.2 109.2 379.5 118 Q 369.3 127.3 350.5 128 L 336.5 125 Q 325.7 120.8 319 112.5 L 311 97.5 Q 308.4 89.6 310 77.5 Q 313.9 60.9 325.5 52 Q 333.6 45.1 346.5 43 Z " /><path fill="rgb(0,0,0)" stroke="rgb(0,0,0)" stroke-width="1" opacity="1" d="M 120.5 150 L 199.5 150 Q 216.9 154.1 226 166.5 Q 231.7 173.8 234 184.5 L 234 309 L 202.5 309 L 202 309.5 L 202 469 L 118 469 L 118 309.5 L 117.5 309 L 86.5 309 L 86 308.5 L 86 184.5 Q 89.7 166.7 102.5 158 Q 109.5 152 120.5 150 Z " /><path fill="rgb(0,0,0)" stroke="rgb(0,0,0)" stroke-width="1" opacity="1" d="M 343.5 150 Q 356.2 148.3 364.5 151 Q 376.7 154.3 384 162.5 L 393 176.5 L 447 341 L 384 341 L 384 469 L 320 469 L 320 341 L 257.5 341 L 257 338.5 L 311 176.5 Q 314.9 166.4 322.5 160 Q 330.5 152.5 343.5 150 Z " /></svg>