<svg width="512" height="512" version="1.1" xmlns="http://www.w3.org/2000/svg" desc="Created with imagetracer.js version 1.2.6" ><path fill="rgb(0,0,0)" stroke="rgb(0,0,0)" stroke-width="1" opacity="0" d="M 0 0 L 512 0 L 512 299.5 L 511 299.5 L 511 292.5 L 508 277.5 Q 503.6 260.4 496 246.5 Q 482.4 221.6 461.5 204 L 432 184.5 Q 445 172.5 452 154.5 L 457 134.5 L 457 114.5 Q 450.8 77.2 426.5 58 Q 415.4 48.6 400.5 43 L 385.5 39 L 371 38 L 371 76.5 Q 371 77.5 375.5 77 L 385.5 79 L 394.5 83 L 408 94.5 L 417 112.5 Q 419.5 120 418 131.5 Q 413.6 151.6 399.5 162 L 386.5 169 L 378.5 171 L 371 171 L 371 209.5 Q 371.3 210.8 377.5 210 L 378.5 211 L 392.5 212 L 411.5 218 Q 431.3 226.7 445 241.5 Q 464.9 261.6 472 294.5 Q 470.5 300 473 301.5 L 473 371 L 512 371 L 512 397 L 473 397 L 473 472.5 L 474.5 474 L 512 474 L 512 511.5 L 511.5 512 L 0 512 L 0 474.5 L 0.5 474 L 383.5 474 L 384 473.5 L 384 397 L 0 397 L 0 0 Z M 310 114 Q 308 117 303 115 L 285 121 L 267 132 Q 254 142 246 156 L 238 173 L 234 192 L 234 209 L 239 230 Q 246 246 257 259 Q 272 276 298 283 L 307 285 L 316 285 L 317 286 L 369 286 Q 384 290 395 299 Q 402 306 406 317 L 409 329 L 409 371 L 448 371 L 448 320 Q 446 318 447 314 Q 442 293 430 280 Q 413 259 385 251 L 369 248 L 315 248 L 304 245 L 294 239 Q 277 227 273 203 L 273 192 L 276 180 L 285 167 Q 296 153 320 153 L 320 115 L 320 114 L 310 114 Z M 409 397 L 409 473 L 411 474 L 448 474 L 448 397 L 409 397 Z " /><path fill="rgb(0,0,0)" stroke="rgb(0,0,0)" stroke-width="1" opacity="0.8784313725490196" d="M 371.5 39 L 372 76.5 L 371 76.5 L 371.5 39 Z " /><path fill="rgb(0,0,0)" stroke="rgb(0,0,0)" stroke-width="1" opacity="0.8784313725490196" d="M 437.5 70 L 438.5 72 L 437.5 70 Z " /><path fill="rgb(0,0,0)" stroke="rgb(0,0,0)" stroke-width="1" opacity="0.8784313725490196" d="M 440.5 74 L 441.5 76 L 440.5 74 Z " /><path fill="rgb(0,0,0)" stroke="rgb(0,0,0)" stroke-width="1" opacity="0.8784313725490196" d="M 401.5 87 L 403.5 90 L 401.5 87 Z " /><path fill="rgb(0,0,0)" stroke="rgb(0,0,0)" stroke-width="1" opacity="0.8784313725490196" d="M 406.5 92 L 407.5 94 L 406.5 92 Z " /><path fill="rgb(0,0,0)" stroke="rgb(0,0,0)" stroke-width="1" opacity="0.8784313725490196" d="M 312.5 114 L 317 114.5 L 312.5 115 L 312.5 114 Z " /><path fill="rgb(0,0,0)" stroke="rgb(0,0,0)" stroke-width="1" opacity="0.8784313725490196" d="M 418.5 119 L 419 121.5 L 418 121.5 L 418.5 119 Z " /><path fill="rgb(0,0,0)" stroke="rgb(0,0,0)" stroke-width="1" opacity="0.8784313725490196" d="M 456.5 119 L 457 123.5 L 456 123.5 L 456.5 119 Z " /><path fill="rgb(0,0,0)" stroke="rgb(0,0,0)" stroke-width="1" opacity="0.8784313725490196" d="M 456.5 125 L 457 128.5 L 456 128.5 L 456.5 125 Z " /><path fill="rgb(0,0,0)" stroke="rgb(0,0,0)" stroke-width="1" opacity="0.8784313725490196" d="M 268.5 131 L 267.5 133 L 268.5 131 Z " /><path fill="rgb(0,0,0)" stroke="rgb(0,0,0)" stroke-width="1" opacity="0.8784313725490196" d="M 262.5 136 L 256.5 143 L 262.5 136 Z " /><path fill="rgb(0,0,0)" stroke="rgb(0,0,0)" stroke-width="1" opacity="0.8784313725490196" d="M 313.5 152 L 316 152.5 L 313.5 153 L 313.5 152 Z " /><path fill="rgb(0,0,0)" stroke="rgb(0,0,0)" stroke-width="1" opacity="0.8784313725490196" d="M 409.5 152 L 407.5 155 L 409.5 152 Z " /><path fill="rgb(0,0,0)" stroke="rgb(0,0,0)" stroke-width="1" opacity="0.8784313725490196" d="M 401.5 160 L 400.5 162 L 401.5 160 Z " /><path fill="rgb(0,0,0)" stroke="rgb(0,0,0)" stroke-width="1" opacity="0.8784313725490196" d="M 286.5 164 L 285.5 166 L 286.5 164 Z " /><path fill="rgb(0,0,0)" stroke="rgb(0,0,0)" stroke-width="1" opacity="0.8784313725490196" d="M 373.5 171 L 376 171.5 L 373.5 172 L 373.5 171 Z " /><path fill="rgb(0,0,0)" stroke="rgb(0,0,0)" stroke-width="1" opacity="0.8784313725490196" d="M 371.5 172 L 372 209.5 L 371 209.5 L 371.5 172 Z " /><path fill="rgb(0,0,0)" stroke="rgb(0,0,0)" stroke-width="1" opacity="0.8784313725490196" d="M 433.5 182 L 432 184.5 L 431.5 186 L 431 184.5 L 433.5 182 Z " /><path fill="rgb(0,0,0)" stroke="rgb(0,0,0)" stroke-width="1" opacity="0.8784313725490196" d="M 458.5 202 L 459.5 204 L 458.5 202 Z " /><path fill="rgb(0,0,0)" stroke="rgb(0,0,0)" stroke-width="1" opacity="0.8784313725490196" d="M 463.5 206 L 469.5 213 L 463.5 206 Z " /><path fill="rgb(0,0,0)" stroke="rgb(0,0,0)" stroke-width="1" opacity="0.8784313725490196" d="M 471.5 214 L 475.5 219 L 471.5 214 Z " /><path fill="rgb(0,0,0)" stroke="rgb(0,0,0)" stroke-width="1" opacity="0.8784313725490196" d="M 479.5 223 L 480.5 225 L 479.5 223 Z " /><path fill="rgb(0,0,0)" stroke="rgb(0,0,0)" stroke-width="1" opacity="0.8784313725490196" d="M 281.5 226 L 282.5 228 L 281.5 226 Z " /><path fill="rgb(0,0,0)" stroke="rgb(0,0,0)" stroke-width="1" opacity="0.8784313725490196" d="M 430.5 228 L 431.5 230 L 430.5 228 Z " /><path fill="rgb(0,0,0)" stroke="rgb(0,0,0)" stroke-width="1" opacity="0.8784313725490196" d="M 284.5 230 L 285.5 232 L 284.5 230 Z " /><path fill="rgb(0,0,0)" stroke="rgb(0,0,0)" stroke-width="1" opacity="0.8784313725490196" d="M 434.5 231 L 435.5 233 L 434.5 231 Z " /><path fill="rgb(0,0,0)" stroke="rgb(0,0,0)" stroke-width="1" opacity="0.8784313725490196" d="M 485.5 231 L 486.5 233 L 485.5 231 Z " /><path fill="rgb(0,0,0)" stroke="rgb(0,0,0)" stroke-width="1" opacity="0.8784313725490196" d="M 289.5 235 L 293.5 240 L 289.5 235 Z " /><path fill="rgb(0,0,0)" stroke="rgb(0,0,0)" stroke-width="1" opacity="0.8784313725490196" d="M 443.5 239 L 444.5 241 L 443.5 239 Z " /><path fill="rgb(0,0,0)" stroke="rgb(0,0,0)" stroke-width="1" opacity="0.8784313725490196" d="M 449.5 246 L 451.5 249 L 449.5 246 Z " /><path fill="rgb(0,0,0)" stroke="rgb(0,0,0)" stroke-width="1" opacity="0.8784313725490196" d="M 316.5 248 L 362 248.5 L 316.5 249 L 316.5 248 Z " /><path fill="rgb(0,0,0)" stroke="rgb(0,0,0)" stroke-width="1" opacity="0.8784313725490196" d="M 250.5 249 L 251.5 251 L 250.5 249 Z " /><path fill="rgb(0,0,0)" stroke="rgb(0,0,0)" stroke-width="1" opacity="0.8784313725490196" d="M 253.5 253 L 256.5 257 L 253.5 253 Z " /><path fill="rgb(0,0,0)" stroke="rgb(0,0,0)" stroke-width="1" opacity="0.8784313725490196" d="M 263.5 263 L 265.5 266 L 263.5 263 Z " /><path fill="rgb(0,0,0)" stroke="rgb(0,0,0)" stroke-width="1" opacity="0.8784313725490196" d="M 416.5 267 L 417.5 269 L 416.5 267 Z " /><path fill="rgb(0,0,0)" stroke="rgb(0,0,0)" stroke-width="1" opacity="0.8784313725490196" d="M 424.5 274 L 427.5 278 L 424.5 274 Z " /><path fill="rgb(0,0,0)" stroke="rgb(0,0,0)" stroke-width="1" opacity="0.8784313725490196" d="M 430.5 281 L 431.5 283 L 430.5 281 Z " /><path fill="rgb(0,0,0)" stroke="rgb(0,0,0)" stroke-width="1" opacity="0.8784313725490196" d="M 363.5 285 L 366 285.5 L 363.5 286 L 363.5 285 Z " /><path fill="rgb(0,0,0)" stroke="rgb(0,0,0)" stroke-width="1" opacity="0.8784313725490196" d="M 433.5 285 L 434.5 287 L 433.5 285 Z " /><path fill="rgb(0,0,0)" stroke="rgb(0,0,0)" stroke-width="1" opacity="0.8784313725490196" d="M 390.5 295 L 391.5 297 L 390.5 295 Z " /><path fill="rgb(0,0,0)" stroke="rgb(0,0,0)" stroke-width="1" opacity="0.8784313725490196" d="M 394.5 298 L 395.5 300 L 394.5 298 Z " /><path fill="rgb(0,0,0)" stroke="rgb(0,0,0)" stroke-width="1" opacity="0.8784313725490196" d="M 473.5 303 L 474 307.5 L 473 307.5 L 473.5 303 Z " /><path fill="rgb(0,0,0)" stroke="rgb(0,0,0)" stroke-width="1" opacity="0.8784313725490196" d="M 399.5 304 L 400.5 306 L 399.5 304 Z " /><path fill="rgb(0,0,0)" stroke="rgb(0,0,0)" stroke-width="1" opacity="0.8784313725490196" d="M 511.5 305 L 512 311.5 L 511 311.5 L 511.5 305 Z " /><path fill="rgb(0,0,0)" stroke="rgb(0,0,0)" stroke-width="1" opacity="0.8784313725490196" d="M 447.5 323 L 448 327.5 L 447 327.5 L 447.5 323 Z " /><path fill="rgb(0,0,0)" stroke="rgb(0,0,0)" stroke-width="1" opacity="0.5098039215686274" d="M 371.5 38 L 378 38.5 L 371.5 39 L 371.5 38 Z " /><path fill="rgb(0,0,0)" stroke="rgb(0,0,0)" stroke-width="1" opacity="0.5098039215686274" d="M 383.5 39 L 386 39.5 L 383.5 40 L 383.5 39 Z " /><path fill="rgb(0,0,0)" stroke="rgb(0,0,0)" stroke-width="1" opacity="0.5098039215686274" d="M 418.5 52 L 419.5 54 L 418.5 52 Z " /><path fill="rgb(0,0,0)" stroke="rgb(0,0,0)" stroke-width="1" opacity="0.5098039215686274" d="M 422.5 55 L 423.5 57 L 422.5 55 Z " /><path fill="rgb(0,0,0)" stroke="rgb(0,0,0)" stroke-width="1" opacity="0.5098039215686274" d="M 426.5 58 L 430.5 63 L 426.5 58 Z " /><path fill="rgb(0,0,0)" stroke="rgb(0,0,0)" stroke-width="1" opacity="0.5098039215686274" d="M 432.5 64 L 436.5 69 L 432.5 64 Z " /><path fill="rgb(0,0,0)" stroke="rgb(0,0,0)" stroke-width="1" opacity="0.5098039215686274" d="M 376.5 77 L 380 77.5 L 376.5 78 L 376.5 77 Z " /><path fill="rgb(0,0,0)" stroke="rgb(0,0,0)" stroke-width="1" opacity="0.5098039215686274" d="M 443.5 78 L 444.5 80 L 443.5 78 Z " /><path fill="rgb(0,0,0)" stroke="rgb(0,0,0)" stroke-width="1" opacity="0.5098039215686274" d="M 398.5 85 L 400.5 88 L 398.5 85 Z " /><path fill="rgb(0,0,0)" stroke="rgb(0,0,0)" stroke-width="1" opacity="0.5098039215686274" d="M 404.5 90 L 405.5 92 L 404.5 90 Z " /><path fill="rgb(0,0,0)" stroke="rgb(0,0,0)" stroke-width="1" opacity="0.5098039215686274" d="M 408.5 95 L 409.5 97 L 408.5 95 Z " /><path fill="rgb(0,0,0)" stroke="rgb(0,0,0)" stroke-width="1" opacity="0.5098039215686274" d="M 455.5 107 L 456 109.5 L 455 109.5 L 455.5 107 Z " /><path fill="rgb(0,0,0)" stroke="rgb(0,0,0)" stroke-width="1" opacity="0.5098039215686274" d="M 309.5 114 L 312 114.5 L 309.5 115 L 309.5 114 Z " /><path fill="rgb(0,0,0)" stroke="rgb(0,0,0)" stroke-width="1" opacity="0.5098039215686274" d="M 456.5 114 L 457 118.5 L 456 118.5 L 456.5 114 Z " /><path fill="rgb(0,0,0)" stroke="rgb(0,0,0)" stroke-width="1" opacity="0.5098039215686274" d="M 302.5 115 L 305 115.5 L 302.5 116 L 302.5 115 Z " /><path fill="rgb(0,0,0)" stroke="rgb(0,0,0)" stroke-width="1" opacity="0.5098039215686274" d="M 418.5 122 L 419 126.5 L 418 126.5 L 418.5 122 Z " /><path fill="rgb(0,0,0)" stroke="rgb(0,0,0)" stroke-width="1" opacity="0.5098039215686274" d="M 273.5 127 L 272.5 129 L 273.5 127 Z " /><path fill="rgb(0,0,0)" stroke="rgb(0,0,0)" stroke-width="1" opacity="0.5098039215686274" d="M 456.5 129 L 457 134.5 L 456 134.5 L 456.5 129 Z " /><path fill="rgb(0,0,0)" stroke="rgb(0,0,0)" stroke-width="1" opacity="0.5098039215686274" d="M 266.5 132 L 263.5 136 L 266.5 132 Z " /><path fill="rgb(0,0,0)" stroke="rgb(0,0,0)" stroke-width="1" opacity="0.5098039215686274" d="M 417.5 132 L 418 134.5 L 417 134.5 L 417.5 132 Z " /><path fill="rgb(0,0,0)" stroke="rgb(0,0,0)" stroke-width="1" opacity="0.5098039215686274" d="M 455.5 138 L 456 140.5 L 455 140.5 L 455.5 138 Z " /><path fill="rgb(0,0,0)" stroke="rgb(0,0,0)" stroke-width="1" opacity="0.5098039215686274" d="M 255.5 143 L 253.5 146 L 255.5 143 Z " /><path fill="rgb(0,0,0)" stroke="rgb(0,0,0)" stroke-width="1" opacity="0.5098039215686274" d="M 251.5 148 L 250.5 150 L 251.5 148 Z " /><path fill="rgb(0,0,0)" stroke="rgb(0,0,0)" stroke-width="1" opacity="0.5098039215686274" d="M 410.5 150 L 409.5 152 L 410.5 150 Z " /><path fill="rgb(0,0,0)" stroke="rgb(0,0,0)" stroke-width="1" opacity="0.5098039215686274" d="M 316.5 152 L 320 152.5 L 316.5 153 L 316.5 152 Z " /><path fill="rgb(0,0,0)" stroke="rgb(0,0,0)" stroke-width="1" opacity="0.5098039215686274" d="M 406.5 155 L 402.5 160 L 406.5 155 Z " /><path fill="rgb(0,0,0)" stroke="rgb(0,0,0)" stroke-width="1" opacity="0.5098039215686274" d="M 293.5 159 L 292.5 161 L 293.5 159 Z " /><path fill="rgb(0,0,0)" stroke="rgb(0,0,0)" stroke-width="1" opacity="0.5098039215686274" d="M 289.5 162 L 288.5 164 L 289.5 162 Z " /><path fill="rgb(0,0,0)" stroke="rgb(0,0,0)" stroke-width="1" opacity="0.5098039215686274" d="M 398.5 162 L 397.5 164 L 398.5 162 Z " /><path fill="rgb(0,0,0)" stroke="rgb(0,0,0)" stroke-width="1" opacity="0.5098039215686274" d="M 284.5 167 L 281.5 171 L 284.5 167 Z " /><path fill="rgb(0,0,0)" stroke="rgb(0,0,0)" stroke-width="1" opacity="0.5098039215686274" d="M 379.5 170 L 382 170.5 L 379.5 171 L 379.5 170 Z " /><path fill="rgb(0,0,0)" stroke="rgb(0,0,0)" stroke-width="1" opacity="0.5098039215686274" d="M 440.5 174 L 439.5 176 L 440.5 174 Z " /><path fill="rgb(0,0,0)" stroke="rgb(0,0,0)" stroke-width="1" opacity="0.5098039215686274" d="M 437.5 178 L 434.5 182 L 437.5 178 Z " /><path fill="rgb(0,0,0)" stroke="rgb(0,0,0)" stroke-width="1" opacity="0.5098039215686274" d="M 235.5 184 L 236 186.5 L 235 186.5 L 235.5 184 Z " /><path fill="rgb(0,0,0)" stroke="rgb(0,0,0)" stroke-width="1" opacity="0.5098039215686274" d="M 273.5 187 L 274 190.5 L 273 190.5 L 273.5 187 Z " /><path fill="rgb(0,0,0)" stroke="rgb(0,0,0)" stroke-width="1" opacity="0.5098039215686274" d="M 234.5 191 L 235 198.5 L 234 198.5 L 234.5 191 Z " /><path fill="rgb(0,0,0)" stroke="rgb(0,0,0)" stroke-width="1" opacity="0.5098039215686274" d="M 443.5 191 L 444.5 193 L 443.5 191 Z " /><path fill="rgb(0,0,0)" stroke="rgb(0,0,0)" stroke-width="1" opacity="0.5098039215686274" d="M 452.5 197 L 453.5 199 L 452.5 197 Z " /><path fill="rgb(0,0,0)" stroke="rgb(0,0,0)" stroke-width="1" opacity="0.5098039215686274" d="M 456.5 200 L 457.5 202 L 456.5 200 Z " /><path fill="rgb(0,0,0)" stroke="rgb(0,0,0)" stroke-width="1" opacity="0.5098039215686274" d="M 234.5 201 L 235 208.5 L 234 208.5 L 234.5 201 Z " /><path fill="rgb(0,0,0)" stroke="rgb(0,0,0)" stroke-width="1" opacity="0.5098039215686274" d="M 273.5 203 L 274 206.5 L 273 206.5 L 273.5 203 Z " /><path fill="rgb(0,0,0)" stroke="rgb(0,0,0)" stroke-width="1" opacity="0.5098039215686274" d="M 461.5 204 L 462.5 206 L 461.5 204 Z " /><path fill="rgb(0,0,0)" stroke="rgb(0,0,0)" stroke-width="1" opacity="0.5098039215686274" d="M 378.5 210 L 383 210.5 L 378.5 211 L 378.5 210 Z " /><path fill="rgb(0,0,0)" stroke="rgb(0,0,0)" stroke-width="1" opacity="0.5098039215686274" d="M 387.5 211 L 390 211.5 L 387.5 212 L 387.5 211 Z " /><path fill="rgb(0,0,0)" stroke="rgb(0,0,0)" stroke-width="1" opacity="0.5098039215686274" d="M 476.5 219 L 478.5 222 L 476.5 219 Z " /><path fill="rgb(0,0,0)" stroke="rgb(0,0,0)" stroke-width="1" opacity="0.5098039215686274" d="M 280.5 224 L 281.5 226 L 280.5 224 Z " /><path fill="rgb(0,0,0)" stroke="rgb(0,0,0)" stroke-width="1" opacity="0.5098039215686274" d="M 425.5 225 L 426.5 227 L 425.5 225 Z " /><path fill="rgb(0,0,0)" stroke="rgb(0,0,0)" stroke-width="1" opacity="0.5098039215686274" d="M 481.5 225 L 482.5 227 L 481.5 225 Z " /><path fill="rgb(0,0,0)" stroke="rgb(0,0,0)" stroke-width="1" opacity="0.5098039215686274" d="M 283.5 228 L 284.5 230 L 283.5 228 Z " /><path fill="rgb(0,0,0)" stroke="rgb(0,0,0)" stroke-width="1" opacity="0.5098039215686274" d="M 484.5 229 L 485.5 231 L 484.5 229 Z " /><path fill="rgb(0,0,0)" stroke="rgb(0,0,0)" stroke-width="1" opacity="0.5098039215686274" d="M 432.5 230 L 433.5 232 L 432.5 230 Z " /><path fill="rgb(0,0,0)" stroke="rgb(0,0,0)" stroke-width="1" opacity="0.5098039215686274" d="M 286.5 232 L 288.5 235 L 286.5 232 Z " /><path fill="rgb(0,0,0)" stroke="rgb(0,0,0)" stroke-width="1" opacity="0.5098039215686274" d="M 436.5 233 L 440.5 238 L 436.5 233 Z " /><path fill="rgb(0,0,0)" stroke="rgb(0,0,0)" stroke-width="1" opacity="0.5098039215686274" d="M 490.5 238 L 491.5 240 L 490.5 238 Z " /><path fill="rgb(0,0,0)" stroke="rgb(0,0,0)" stroke-width="1" opacity="0.5098039215686274" d="M 299.5 242 L 300.5 244 L 299.5 242 Z " /><path fill="rgb(0,0,0)" stroke="rgb(0,0,0)" stroke-width="1" opacity="0.5098039215686274" d="M 445.5 242 L 448.5 246 L 445.5 242 Z " /><path fill="rgb(0,0,0)" stroke="rgb(0,0,0)" stroke-width="1" opacity="0.5098039215686274" d="M 311.5 247 L 314 247.5 L 311.5 248 L 311.5 247 Z " /><path fill="rgb(0,0,0)" stroke="rgb(0,0,0)" stroke-width="1" opacity="0.5098039215686274" d="M 362.5 248 L 369 248.5 L 362.5 249 L 362.5 248 Z " /><path fill="rgb(0,0,0)" stroke="rgb(0,0,0)" stroke-width="1" opacity="0.5098039215686274" d="M 373.5 249 L 376 249.5 L 373.5 250 L 373.5 249 Z " /><path fill="rgb(0,0,0)" stroke="rgb(0,0,0)" stroke-width="1" opacity="0.5098039215686274" d="M 451.5 249 L 452.5 251 L 451.5 249 Z " /><path fill="rgb(0,0,0)" stroke="rgb(0,0,0)" stroke-width="1" opacity="0.5098039215686274" d="M 454.5 253 L 455.5 255 L 454.5 253 Z " /><path fill="rgb(0,0,0)" stroke="rgb(0,0,0)" stroke-width="1" opacity="0.5098039215686274" d="M 257.5 258 L 261.5 263 L 257.5 258 Z " /><path fill="rgb(0,0,0)" stroke="rgb(0,0,0)" stroke-width="1" opacity="0.5098039215686274" d="M 266.5 266 L 267.5 268 L 266.5 266 Z " /><path fill="rgb(0,0,0)" stroke="rgb(0,0,0)" stroke-width="1" opacity="0.5098039215686274" d="M 270.5 269 L 271.5 271 L 270.5 269 Z " /><path fill="rgb(0,0,0)" stroke="rgb(0,0,0)" stroke-width="1" opacity="0.5098039215686274" d="M 419.5 269 L 423.5 274 L 419.5 269 Z " /><path fill="rgb(0,0,0)" stroke="rgb(0,0,0)" stroke-width="1" opacity="0.5098039215686274" d="M 273.5 271 L 274.5 273 L 273.5 271 Z " /><path fill="rgb(0,0,0)" stroke="rgb(0,0,0)" stroke-width="1" opacity="0.5098039215686274" d="M 428.5 278 L 429.5 280 L 428.5 278 Z " /><path fill="rgb(0,0,0)" stroke="rgb(0,0,0)" stroke-width="1" opacity="0.5098039215686274" d="M 432.5 283 L 433.5 285 L 432.5 283 Z " /><path fill="rgb(0,0,0)" stroke="rgb(0,0,0)" stroke-width="1" opacity="0.5098039215686274" d="M 306.5 284 L 309 284.5 L 306.5 285 L 306.5 284 Z " /><path fill="rgb(0,0,0)" stroke="rgb(0,0,0)" stroke-width="1" opacity="0.5098039215686274" d="M 316.5 285 L 363 285.5 L 316.5 286 L 316.5 285 Z " /><path fill="rgb(0,0,0)" stroke="rgb(0,0,0)" stroke-width="1" opacity="0.5098039215686274" d="M 509.5 286 L 510 288.5 L 509 288.5 L 509.5 286 Z " /><path fill="rgb(0,0,0)" stroke="rgb(0,0,0)" stroke-width="1" opacity="0.5098039215686274" d="M 510.5 292 L 511 294.5 L 510 294.5 L 510.5 292 Z " /><path fill="rgb(0,0,0)" stroke="rgb(0,0,0)" stroke-width="1" opacity="0.5098039215686274" d="M 387.5 293 L 388.5 295 L 387.5 293 Z " /><path fill="rgb(0,0,0)" stroke="rgb(0,0,0)" stroke-width="1" opacity="0.5098039215686274" d="M 392.5 297 L 393.5 299 L 392.5 297 Z " /><path fill="rgb(0,0,0)" stroke="rgb(0,0,0)" stroke-width="1" opacity="0.5098039215686274" d="M 472.5 298 L 473 300.5 L 472 300.5 L 472.5 298 Z " /><path fill="rgb(0,0,0)" stroke="rgb(0,0,0)" stroke-width="1" opacity="0.5098039215686274" d="M 511.5 300 L 512 304.5 L 511 304.5 L 511.5 300 Z " /><path fill="rgb(0,0,0)" stroke="rgb(0,0,0)" stroke-width="1" opacity="0.5098039215686274" d="M 396.5 301 L 398.5 304 L 396.5 301 Z " /><path fill="rgb(0,0,0)" stroke="rgb(0,0,0)" stroke-width="1" opacity="0.5098039215686274" d="M 473.5 308 L 474 370.5 L 473 370.5 L 473.5 308 Z " /><path fill="rgb(0,0,0)" stroke="rgb(0,0,0)" stroke-width="1" opacity="0.5098039215686274" d="M 446.5 313 L 447 315.5 L 446 315.5 L 446.5 313 Z " /><path fill="rgb(0,0,0)" stroke="rgb(0,0,0)" stroke-width="1" opacity="0.5098039215686274" d="M 447.5 319 L 448 322.5 L 447 322.5 L 447.5 319 Z " /><path fill="rgb(0,0,0)" stroke="rgb(0,0,0)" stroke-width="1" opacity="0.5098039215686274" d="M 408.5 325 L 409 327.5 L 408 327.5 L 408.5 325 Z " /><path fill="rgb(0,0,0)" stroke="rgb(0,0,0)" stroke-width="1" opacity="0.5098039215686274" d="M 409.5 332 L 410 370.5 L 409 370.5 L 409.5 332 Z " /><path fill="rgb(0,0,0)" stroke="rgb(0,0,0)" stroke-width="1" opacity="0.5098039215686274" d="M 409.5 397 L 410 473 L 448 473.5 L 410.5 474 L 409 472.5 L 409.5 397 Z " /><path fill="rgb(0,0,0)" stroke="rgb(0,0,0)" stroke-width="1" opacity="0.5098039215686274" d="M 473.5 397 L 474 473 L 512 473.5 L 474.5 474 L 473 472.5 L 473.5 397 Z " /><path fill="rgb(0,0,0)" stroke="rgb(0,0,0)" stroke-width="1" opacity="0.5098039215686274" d="M 0.5 473 L 384 473.5 L 0.5 474 L 0.5 473 Z " /><path fill="rgb(0,0,0)" stroke="rgb(0,0,0)" stroke-width="1" opacity="1" d="M 372 39 L 387.5 40 L 401.5 44 Q 423.2 52.8 437 69.5 Q 447.4 81.6 453 98.5 L 456 112.5 L 456 123.5 L 457 124.5 L 456 125.5 L 455 141.5 L 450 157.5 L 441 173.5 L 431 186 L 451.5 197 L 471 213 L 483 227.5 L 493 242.5 Q 501.8 257.7 507 276.5 L 511 297.5 L 511 311.5 L 512 312.5 L 512 371 L 474 371 L 474 303.5 L 470 283.5 L 466 272.5 Q 457.7 252.8 443.5 239 Q 429.8 225.2 410.5 217 L 390.5 211 L 372 210 L 372 172.5 L 375.5 172 L 385.5 170 L 396.5 165 L 410 152.5 Q 419.5 141 419 119.5 L 416 106.5 L 413 100.5 L 401.5 87 L 390.5 80 L 380.5 77 L 372 77 L 372 39 Z " /><path fill="rgb(0,0,0)" stroke="rgb(0,0,0)" stroke-width="1" opacity="1" d="M 317.5 114 L 320 114.5 L 320 152 Q 296.9 152.6 285 165.5 Q 272.3 176.3 272 199.5 L 275 214.5 L 281 226.5 L 293.5 240 L 304.5 246 L 316.5 249 L 370.5 249 L 385.5 252 Q 413.6 260.4 430 280.5 Q 441.3 293.2 446 312.5 L 447 327.5 L 448 328.5 L 448 371 L 410 371 L 410 330.5 L 405 312.5 L 394.5 298 L 378.5 288 L 365.5 285 L 311.5 285 L 296.5 282 Q 271.9 274.6 257 257.5 Q 244.5 244 238 224.5 L 235 210.5 L 235 188.5 Q 241.7 151.7 266.5 133 L 288.5 120 L 301.5 116 L 316.5 115 L 317.5 114 Z " /><path fill="rgb(0,0,0)" stroke="rgb(0,0,0)" stroke-width="1" opacity="1" d="M 0 397 L 383.5 397 L 384 397.5 L 384 473 L 0.5 473 L 0 472.5 L 0 397 Z " /><path fill="rgb(0,0,0)" stroke="rgb(0,0,0)" stroke-width="1" opacity="1" d="M 410 397 L 448 397 L 448 473 L 410 473 L 410 397 Z " /><path fill="rgb(0,0,0)" stroke="rgb(0,0,0)" stroke-width="1" opacity="1" d="M 474 397 L 512 397 L 512 473 L 474 473 L 474 397 Z " /></svg>