<svg width="512" height="512" version="1.1" xmlns="http://www.w3.org/2000/svg" desc="Created with imagetracer.js version 1.2.6" ><path fill="rgb(0,0,0)" stroke="rgb(0,0,0)" stroke-width="1" opacity="0.8352941176470589" d="M 195.5 32 L 198 32.5 L 195.5 33 L 195.5 32 Z " /><path fill="rgb(0,0,0)" stroke="rgb(0,0,0)" stroke-width="1" opacity="0.8352941176470589" d="M 314.5 32 L 317 32.5 L 314.5 33 L 314.5 32 Z " /><path fill="rgb(0,0,0)" stroke="rgb(0,0,0)" stroke-width="1" opacity="0.8352941176470589" d="M 324.5 35 L 325.5 37 L 324.5 35 Z " /><path fill="rgb(0,0,0)" stroke="rgb(0,0,0)" stroke-width="1" opacity="0.8352941176470589" d="M 180.5 42 L 179.5 44 L 180.5 42 Z " /><path fill="rgb(0,0,0)" stroke="rgb(0,0,0)" stroke-width="1" opacity="0.8352941176470589" d="M 176.5 51 L 177 53.5 L 176 53.5 L 176.5 51 Z " /><path fill="rgb(0,0,0)" stroke="rgb(0,0,0)" stroke-width="1" opacity="0.8352941176470589" d="M 335.5 51 L 336 54.5 L 335 54.5 L 335.5 51 Z " /><path fill="rgb(0,0,0)" stroke="rgb(0,0,0)" stroke-width="1" opacity="0.8352941176470589" d="M 51.5 176 L 54 176.5 L 51.5 177 L 51.5 176 Z " /><path fill="rgb(0,0,0)" stroke="rgb(0,0,0)" stroke-width="1" opacity="0.8352941176470589" d="M 458.5 176 L 461 176.5 L 458.5 177 L 458.5 176 Z " /><path fill="rgb(0,0,0)" stroke="rgb(0,0,0)" stroke-width="1" opacity="0.8352941176470589" d="M 468.5 179 L 469.5 181 L 468.5 179 Z " /><path fill="rgb(0,0,0)" stroke="rgb(0,0,0)" stroke-width="1" opacity="0.8352941176470589" d="M 36.5 186 L 35.5 188 L 36.5 186 Z " /><path fill="rgb(0,0,0)" stroke="rgb(0,0,0)" stroke-width="1" opacity="0.8352941176470589" d="M 32.5 195 L 33 197.5 L 32 197.5 L 32.5 195 Z " /><path fill="rgb(0,0,0)" stroke="rgb(0,0,0)" stroke-width="1" opacity="0.8352941176470589" d="M 479.5 195 L 480 198.5 L 479 198.5 L 479.5 195 Z " /><path fill="rgb(0,0,0)" stroke="rgb(0,0,0)" stroke-width="1" opacity="0.8352941176470589" d="M 479.5 313 L 480 316.5 L 479 316.5 L 479.5 313 Z " /><path fill="rgb(0,0,0)" stroke="rgb(0,0,0)" stroke-width="1" opacity="0.8352941176470589" d="M 32.5 314 L 33 316.5 L 32 316.5 L 32.5 314 Z " /><path fill="rgb(0,0,0)" stroke="rgb(0,0,0)" stroke-width="1" opacity="0.8352941176470589" d="M 475.5 325 L 474.5 327 L 475.5 325 Z " /><path fill="rgb(0,0,0)" stroke="rgb(0,0,0)" stroke-width="1" opacity="0.8352941176470589" d="M 470.5 330 L 468.5 333 L 470.5 330 Z " /><path fill="rgb(0,0,0)" stroke="rgb(0,0,0)" stroke-width="1" opacity="0.8352941176470589" d="M 51.5 335 L 54 335.5 L 51.5 336 L 51.5 335 Z " /><path fill="rgb(0,0,0)" stroke="rgb(0,0,0)" stroke-width="1" opacity="0.8352941176470589" d="M 458.5 335 L 461 335.5 L 458.5 336 L 458.5 335 Z " /><path fill="rgb(0,0,0)" stroke="rgb(0,0,0)" stroke-width="1" opacity="0.8352941176470589" d="M 335.5 457 L 336 460.5 L 335 460.5 L 335.5 457 Z " /><path fill="rgb(0,0,0)" stroke="rgb(0,0,0)" stroke-width="1" opacity="0.8352941176470589" d="M 176.5 458 L 177 460.5 L 176 460.5 L 176.5 458 Z " /><path fill="rgb(0,0,0)" stroke="rgb(0,0,0)" stroke-width="1" opacity="0.8352941176470589" d="M 331.5 469 L 330.5 471 L 331.5 469 Z " /><path fill="rgb(0,0,0)" stroke="rgb(0,0,0)" stroke-width="1" opacity="0.8352941176470589" d="M 326.5 474 L 324.5 477 L 326.5 474 Z " /><path fill="rgb(0,0,0)" stroke="rgb(0,0,0)" stroke-width="1" opacity="0.8352941176470589" d="M 195.5 479 L 198 479.5 L 195.5 480 L 195.5 479 Z " /><path fill="rgb(0,0,0)" stroke="rgb(0,0,0)" stroke-width="1" opacity="0.8352941176470589" d="M 314.5 479 L 317 479.5 L 314.5 480 L 314.5 479 Z " /><path fill="rgb(0,0,0)" stroke="rgb(0,0,0)" stroke-width="1" opacity="0" d="M 0 0 L 512 0 L 512 512 L 0 512 L 0 0 Z M 196 32 L 187 36 Q 178 41 176 52 L 176 176 L 52 176 L 43 180 Q 34 185 32 196 L 32 317 L 36 326 Q 41 333 52 336 L 176 336 L 176 461 L 180 470 Q 185 477 196 480 L 317 480 L 325 477 Q 333 471 336 461 L 336 336 L 461 336 L 469 333 Q 477 327 480 317 L 480 196 L 476 187 Q 471 178 461 176 L 336 176 L 336 52 L 332 43 Q 327 34 317 32 L 196 32 Z " /><path fill="rgb(0,0,0)" stroke="rgb(0,0,0)" stroke-width="1" opacity="1" d="M 198.5 32 L 313.5 32 L 323.5 35 L 331 41.5 L 334 46.5 L 336 55.5 L 336 176 L 457.5 176 L 467.5 179 L 475 185.5 L 478 190.5 L 480 199.5 L 480 312.5 L 478 321.5 L 471.5 330 L 465.5 334 L 457.5 336 L 336 336 L 336 456.5 L 334 465.5 L 327.5 474 L 321.5 478 L 313.5 480 L 198.5 480 L 188.5 477 L 181 470.5 L 178 465.5 L 176 457.5 L 176 336 L 54.5 336 L 44.5 333 L 37 326.5 L 34 321.5 L 32 313.5 L 32 198.5 L 35 188.5 L 41.5 181 L 46.5 178 L 54.5 176 L 176 176 L 176 54.5 L 179 44.5 L 185.5 37 L 190.5 34 L 198.5 32 Z " /></svg>