<svg width="512" height="512" version="1.1" xmlns="http://www.w3.org/2000/svg" desc="Created with imagetracer.js version 1.2.6" ><path fill="rgb(0,0,0)" stroke="rgb(0,0,0)" stroke-width="1" opacity="0.9764705882352941" d="M 237.5 43 L 274.5 43 L 275.5 44 L 290.5 45 L 309.5 49 L 336.5 58 Q 384.3 78.2 416 114.5 Q 441 142.5 456 180.5 L 463 202.5 L 468 228.5 L 468 237.5 L 469 238.5 L 469 273.5 L 468 274.5 L 467 290.5 L 461 316.5 Q 454 340 443 359.5 Q 424.6 392.1 397.5 416 Q 369.5 441 331.5 456 L 309.5 463 L 283.5 468 L 274.5 468 L 273.5 469 L 238.5 469 L 237.5 468 L 221.5 467 L 195.5 461 Q 173.2 454.3 154.5 444 Q 120.5 425.5 96 397.5 Q 65.9 364.6 51 316.5 L 45 290.5 L 44 275.5 L 43 274.5 L 43 237.5 L 44 236.5 L 45 221.5 L 51 195.5 Q 58 172 69 152.5 Q 87.4 119.9 114.5 96 Q 137.8 74.8 168.5 61 L 202.5 49 L 221.5 45 L 236.5 44 L 237.5 43 Z M 251 85 L 250 86 L 237 86 L 236 87 L 224 88 L 191 98 Q 163 110 142 129 Q 117 151 102 182 L 90 215 L 86 237 L 86 250 L 85 251 L 86 276 L 87 277 L 88 289 L 96 317 Q 109 348 130 372 Q 151 395 182 410 L 215 422 L 237 426 L 250 426 L 251 427 L 276 426 L 277 425 L 289 424 L 317 416 Q 348 403 372 382 Q 395 361 410 331 L 422 298 L 425 283 L 426 263 L 427 262 L 426 237 L 425 236 L 424 224 L 416 196 Q 403 164 382 141 Q 357 114 322 98 L 289 88 L 277 87 L 276 86 L 251 85 Z " /><path fill="rgb(0,0,0)" stroke="rgb(0,0,0)" stroke-width="1" opacity="0.9764705882352941" d="M 250.5 123 L 261.5 123 Q 268.9 125.1 273 130.5 L 277 138.5 L 277 161.5 Q 274.5 169.5 268.5 174 Q 263.5 178 254.5 178 L 243.5 174 L 239 169.5 L 235 161.5 L 235 138.5 Q 237.1 131.1 242.5 127 L 250.5 123 Z " /><path fill="rgb(0,0,0)" stroke="rgb(0,0,0)" stroke-width="1" opacity="0.9764705882352941" d="M 251.5 206 Q 268.7 204.8 274 215.5 L 277 221.5 L 277 373.5 L 270.5 384 Q 265 391 250.5 389 Q 243.1 386.9 239 381.5 L 235 373.5 L 235 221.5 Q 237.9 213.4 244.5 209 L 251.5 206 Z " /><path fill="rgb(0,0,0)" stroke="rgb(0,0,0)" stroke-width="1" opacity="0" d="M 0 0 L 512 0 L 512 512 L 0 512 L 0 0 Z M 238 43 L 237 44 L 222 45 L 203 49 L 169 61 Q 138 75 115 96 Q 87 120 69 153 Q 58 172 51 196 L 45 222 L 44 237 L 43 238 L 43 275 L 44 276 L 45 291 L 51 317 Q 66 365 96 398 Q 121 425 155 444 Q 173 454 196 461 L 222 467 L 238 468 L 239 469 L 274 469 L 275 468 L 284 468 L 310 463 L 332 456 Q 370 441 398 416 Q 425 392 443 360 Q 454 340 461 317 L 467 291 L 468 275 L 469 274 L 469 239 L 468 238 L 468 229 L 463 203 L 456 181 Q 441 142 416 115 Q 384 78 337 58 L 310 49 L 291 45 L 276 44 L 275 43 L 238 43 Z " /><path fill="rgb(0,0,0)" stroke="rgb(0,0,0)" stroke-width="1" opacity="0" d="M 250.5 85 L 275.5 86 L 276.5 87 L 288.5 88 L 321.5 98 Q 357.5 113.5 382 140.5 Q 403.4 163.6 416 195.5 L 424 223.5 L 425 235.5 L 426 236.5 L 427 261.5 L 426 262.5 L 425 282.5 L 422 297.5 L 410 330.5 Q 395 360.5 371.5 382 Q 348.4 403.4 316.5 416 L 288.5 424 L 276.5 425 L 275.5 426 L 250.5 427 L 249.5 426 L 236.5 426 L 214.5 422 L 181.5 410 Q 151.5 395 130 371.5 Q 108.6 348.4 96 316.5 L 88 288.5 L 87 276.5 L 86 275.5 L 85 250.5 L 86 249.5 L 86 236.5 L 90 214.5 L 102 181.5 Q 117.4 150.9 141.5 129 Q 162.5 110 190.5 98 L 223.5 88 L 235.5 87 L 236.5 86 L 249.5 86 L 250.5 85 Z M 251 123 L 243 127 Q 237 131 235 139 L 235 162 L 239 170 L 244 174 L 255 178 Q 264 178 269 174 Q 275 170 277 162 L 277 139 L 273 131 Q 269 125 262 123 L 251 123 Z M 252 206 L 245 209 Q 238 213 235 222 L 235 374 L 239 382 Q 243 387 251 389 Q 265 391 271 384 L 277 374 L 277 222 L 274 216 Q 269 205 252 206 Z " /></svg>